<?xml version="1.0" encoding="UTF-8"?>
<svg version="1.1" xmlns="http://www.w3.org/2000/svg" width="1024" height="1024">
<path d="M0 0 C337.92 0 675.84 0 1024 0 C1024 337.92 1024 675.84 1024 1024 C686.08 1024 348.16 1024 0 1024 C0 686.08 0 348.16 0 0 Z " fill="#FEFDF8" transform="translate(0,0)"/>
<path d="M0 0 C6.0333402 3.56743144 9.37466632 8.81149897 11.5625 15.375 C12.30594355 22.1898992 10.42793886 27.57684172 6.6875 33.1875 C4.47918548 35.46076495 2.29474673 36.80147837 -0.4375 38.375 C0.78259766 38.41367188 0.78259766 38.41367188 2.02734375 38.453125 C38.58052502 40.26228133 70.13746457 58.8474818 94.64404297 85.21142578 C106.0409634 98.06450657 106.0409634 98.06450657 108.50244141 105.0378418 C110.2974495 107.54648525 110.2974495 107.54648525 112.72665405 107.82089233 C115.70320126 107.98733363 118.64408264 107.98751119 121.625 107.94140625 C122.72666504 107.94704086 123.82833008 107.95267548 124.96337891 107.95848083 C128.49684729 107.97497764 132.02907457 107.95937656 135.5625 107.9375 C139.06725212 107.92084748 142.57116161 107.91192544 146.07592773 107.92723083 C148.25643202 107.9364258 150.43711486 107.92763516 152.61743164 107.89759827 C163.12430974 107.93482217 172.98072586 110.83598023 180.5625 118.375 C183.88155407 122.29704992 186.99594978 126.34975392 190.09179688 130.44873047 C192.52542187 133.63619746 195.04639243 136.75253775 197.5625 139.875 C204.18678748 148.13216207 210.72242431 156.45791513 217.23828125 164.80078125 C218.13773489 165.95074455 219.03747569 167.10048329 219.9375 168.25 C220.38327393 168.81952393 220.82904785 169.38904785 221.28833008 169.97583008 C224.34891865 173.87068024 227.46613289 177.71529709 230.6081543 181.54467773 C243.25750719 196.98446229 250.22863445 208.0563334 250.05859375 228.55078125 C250.05874909 230.09010384 250.06024384 231.62942682 250.06300354 233.16874695 C250.06437874 236.37350031 250.05197151 239.57780129 250.02905273 242.7824707 C250.00054958 246.87905807 250.00344956 250.97490214 250.01614285 255.0715456 C250.02310982 258.24153445 250.01530119 261.41135275 250.00288582 264.58131981 C249.99838966 266.09191419 249.99801838 267.60252698 250.00195122 269.11312294 C250.00487674 271.22333792 249.98829897 273.33254036 249.96655273 275.44262695 C249.96114975 276.63966751 249.95574677 277.83670807 249.95018005 279.07002258 C249.35245569 284.16563044 247.722836 287.37000352 243.85620117 290.71899414 C240.06949068 292.62287504 237.00683326 292.93940129 232.86328125 292.87109375 C232.14641647 292.87254898 231.4295517 292.87400421 230.69096375 292.87550354 C229.18577989 292.87385261 227.68057774 292.86238207 226.17553711 292.84155273 C223.87085684 292.81244768 221.56845926 292.82098791 219.26367188 292.83398438 C217.79686383 292.82775047 216.33006301 292.81936225 214.86328125 292.80859375 C214.17575272 292.81152939 213.48822418 292.81446503 212.77986145 292.81748962 C209.95613801 292.76162152 208.01740408 292.69298779 205.66601562 291.04931641 C203.88643194 288.34923125 203.44883836 285.44929499 202.75 282.3125 C201.07713492 275.51103639 198.78835273 270.04429007 194.5625 264.375 C193.93730469 263.53324219 193.31210937 262.69148438 192.66796875 261.82421875 C184.37885371 251.68966065 172.59396994 245.01789034 159.5625 243.375 C142.98190706 242.04518595 129.41752644 246.11848457 116.375 256.5625 C107.32561418 264.86234073 102.14319176 276.62818996 100.0546875 288.5625 C99.5625 290.375 99.5625 290.375 97.5625 292.375 C95.04464817 292.63506222 95.04464817 292.63506222 91.79945374 292.64915466 C90.57257339 292.65912979 89.34569305 292.66910492 88.08163452 292.67938232 C86.71466077 292.68027819 85.34768686 292.68094173 83.98071289 292.68139648 C82.54687567 292.68901455 81.11304256 292.69744143 79.67921448 292.70661926 C75.77842162 292.72860481 71.87770716 292.73736845 67.97685933 292.74244571 C65.54155939 292.74608418 63.10628015 292.75232153 60.67098808 292.7594471 C52.18014494 292.78395467 43.68936303 292.79699653 35.19848633 292.80053711 C27.27535258 292.80417452 19.35260572 292.83408093 11.42959028 292.87594169 C4.63379203 292.91059221 -2.16187769 292.92608463 -8.95776373 292.92678314 C-13.01961601 292.9275777 -17.08107436 292.93639726 -21.14283562 292.96478081 C-24.96216637 292.9908727 -28.78077412 292.99321735 -32.60015297 292.97712517 C-34.00344793 292.97530358 -35.40678362 292.98206532 -36.80998993 292.99794388 C-38.72237728 293.01826836 -40.63503503 293.00491529 -42.54747009 292.98973083 C-43.61876128 292.99174216 -44.69005247 292.99375349 -45.79380703 292.99582577 C-48.4375 292.375 -48.4375 292.375 -50.25728703 289.99551487 C-51.43234222 287.38645221 -52.17855121 284.97440475 -52.8125 282.1875 C-56.44725501 268.35317737 -65.11832587 256.83483888 -77.4375 249.375 C-81.69110817 247.44609641 -85.99525656 245.81412037 -90.4375 244.375 C-91.06140625 244.17261719 -91.6853125 243.97023438 -92.328125 243.76171875 C-107.19748865 241.03566875 -121.11148229 244.64027767 -133.7890625 252.54296875 C-146.19757233 261.12643647 -151.85633744 273.86443504 -155.52734375 288.015625 C-156.4375 291.375 -156.4375 291.375 -157.4375 292.375 C-160.51201355 292.65358031 -163.6018663 292.60682248 -166.6875 292.625 C-167.97720703 292.6559375 -167.97720703 292.6559375 -169.29296875 292.6875 C-174.15721597 292.71747995 -177.54576233 292.62299159 -181.4375 289.375 C-184.24319934 286.48798221 -184.80478704 284.25615803 -184.82241821 280.2563324 C-184.80625458 279.55428177 -184.79009094 278.85223114 -184.7734375 278.12890625 C-184.76412201 277.36171768 -184.75480652 276.59452911 -184.74520874 275.80409241 C-184.4705455 263.00027159 -183.28097829 250.21892638 -182.23626709 237.45922852 C-182.00331829 234.58136583 -181.78045082 231.70275663 -181.55751991 228.82410336 C-181.33914936 226.02083769 -181.11458029 223.21809453 -180.88816452 220.41546822 C-180.7309244 218.45668123 -180.57860291 216.49750136 -180.42642212 214.53831482 C-179.00131031 197.39281975 -179.00131031 197.39281975 -175.5 192.875 C-172.2892949 190.53994174 -169.66185429 190.24925052 -165.81040096 190.24192142 C-164.85469422 190.23768038 -163.89898748 190.23343933 -162.91431993 190.22906977 C-161.33613075 190.22964897 -161.33613075 190.22964897 -159.72605896 190.23023987 C-158.61009702 190.22671302 -157.49413509 190.22318618 -156.34435612 190.21955246 C-152.58560503 190.20883367 -148.82687925 190.20517901 -145.06811523 190.20141602 C-142.38129454 190.19511335 -139.69447789 190.18840693 -137.00765991 190.18115234 C-131.21276112 190.16620926 -125.41786362 190.15466691 -119.62295341 190.14520454 C-111.24225948 190.13134113 -102.86159577 190.11015545 -94.48092354 190.08677601 C-80.88157659 190.04885241 -67.28222418 190.01388639 -53.68286133 189.98217773 C-52.86864462 189.98027724 -52.05442791 189.97837675 -51.21553797 189.97641867 C-39.65369958 189.94957126 -28.09185694 189.92570098 -16.53000969 189.90303367 C-15.7154898 189.90143637 -14.9009699 189.89983906 -14.06176758 189.89819336 C-13.24823676 189.89659989 -12.43470595 189.89500643 -11.59652268 189.89336468 C1.95245301 189.86662752 15.50139636 189.83224274 29.05033726 189.79153961 C37.41348707 189.7667245 45.77660205 189.74842031 54.1397829 189.738384 C59.86601112 189.73101086 65.59219257 189.71651191 71.31838984 189.69631977 C74.62594155 189.68489325 77.93340242 189.67787712 81.24097633 189.67732811 C84.82009522 189.67625385 88.3989658 189.66308095 91.9780426 189.64674377 C93.03239945 189.64936063 94.08675629 189.65197748 95.17306334 189.65467364 C96.12616233 189.64782484 97.07926132 189.64097605 98.0612421 189.63391972 C98.88816565 189.63218347 99.71508919 189.63044722 100.56707102 189.62865835 C102.79308526 189.55260958 102.79308526 189.55260958 104.5625 187.375 C105.07216413 181.49163097 105.07216413 181.49163097 102.5625 176.375 C100.65530064 175.92456844 100.65530064 175.92456844 98.42323494 176.00141239 C97.55087074 175.99442265 96.67850655 175.9874329 95.77970707 175.98023134 C94.81552416 175.9878074 93.85134125 175.99538345 92.85794067 176.00318909 C91.838166 175.99936452 90.81839132 175.99553996 89.76771438 175.9915995 C86.32824209 175.9822653 82.88916719 175.99433689 79.44970703 176.00610352 C76.99287752 176.00363733 74.53604906 175.99980077 72.07922363 175.99468994 C66.77754938 175.9863321 61.47598679 175.98687232 56.17432022 175.99487495 C48.50458875 176.00608814 40.83498099 175.99708192 33.1652603 175.98231315 C20.71678374 175.95852275 8.26832241 175.94517289 -4.18017578 175.94116211 C-4.92564923 175.94091724 -5.67112268 175.94067237 -6.43918623 175.94042008 C-14.75576312 175.93787433 -23.07233884 175.93730722 -31.38891602 175.93835449 C-34.40397135 175.93868751 -37.41902669 175.93897291 -40.43408203 175.93920898 C-41.55002478 175.93930317 -41.55002478 175.93930317 -42.68851183 175.93939925 C-55.08712375 175.94000375 -67.48566531 175.92513527 -79.8842479 175.89837593 C-87.53570716 175.88255204 -95.18693959 175.88033231 -102.83840133 175.89550995 C-108.69941946 175.90607731 -114.56028935 175.89630474 -120.42129517 175.87895203 C-122.82877666 175.87521261 -125.2362799 175.87837162 -127.64374161 175.88882256 C-130.92248735 175.90211068 -134.2002674 175.89105378 -137.47897339 175.87379456 C-138.91855559 175.88850472 -138.91855559 175.88850472 -140.38722026 175.90351206 C-146.81423513 175.83322417 -146.81423513 175.83322417 -150.02890205 173.4698019 C-153.95655517 167.62877733 -151.2270408 158.47901746 -149.98242188 152.02758789 C-144.25335242 125.09042095 -131.4759585 101.21339373 -112.4375 81.375 C-111.61894531 80.49328125 -110.80039062 79.6115625 -109.95703125 78.703125 C-92.91013533 60.87564743 -71.12258588 48.93798562 -47.4375 42.375 C-45.69726562 41.88580078 -45.69726562 41.88580078 -43.921875 41.38671875 C-36.14609623 39.40520991 -28.44131991 38.72299217 -20.4375 38.375 C-21.345 37.818125 -22.2525 37.26125 -23.1875 36.6875 C-27.77832011 33.42095492 -30.97017098 29.87748381 -32.4375 24.375 C-33.21868629 17.5337019 -32.57044137 12.00643473 -28.4375 6.375 C-20.95009882 -1.60919557 -10.38445699 -4.73815528 0 0 Z " fill="#F56700" transform="translate(523.4375,178.625)"/>
<path d="M0 0 C58.31533554 0 58.31533554 0 74 14.81640625 C83.70061829 25.40751098 86.87210314 38.77117521 86.31640625 52.78515625 C85.45698862 66.2924907 81.59038275 78.74520686 71.44921875 88.15234375 C50.46716739 103.98090881 25.52967057 100 0 100 C0 67 0 34 0 0 Z " fill="#24383D" transform="translate(593,568)"/>
<path d="M0 0 C7.81987667 6.91441726 13.24349725 16.70756604 14.203125 27.2265625 C14.43305393 38.99125922 10.39349566 49.48872466 2.4375 58.1875 C-6.49988222 66.69929259 -16.96247444 69.61838932 -28.9765625 69.33203125 C-40.11308059 68.68554919 -48.69050321 63.11559083 -56 55 C-63.52126404 45.6845067 -65.13983944 34.69630697 -64 23 C-61.78540649 12.04567136 -56.26317765 3.67729408 -47.11328125 -2.71875 C-31.72839712 -12.04636921 -14.40933084 -10.91470907 0 0 Z " fill="#F66501" transform="translate(701,444)"/>
<path d="M0 0 C1.051875 0.598125 2.10375 1.19625 3.1875 1.8125 C11.76669671 8.48520855 18.44708072 16.87358934 20 28 C20.93622612 40.43185497 19.10421701 50.24833741 10.984375 59.9296875 C5.37948712 65.77730674 -0.25746953 69.63787206 -8 72 C-8.59039062 72.18175781 -9.18078125 72.36351562 -9.7890625 72.55078125 C-20.48885406 74.72476717 -31.22020894 73.24408474 -40.46484375 67.45703125 C-49.80105543 60.66847134 -55.01733642 52.09587628 -57.75 40.9375 C-57.8325 39.968125 -57.915 38.99875 -58 38 C-58.06316406 37.35933594 -58.12632812 36.71867187 -58.19140625 36.05859375 C-58.76494052 25.71647579 -54.52108144 15.87079364 -48 8 C-36.15708573 -5.14404162 -15.53525639 -8.92582325 0 0 Z " fill="#F66501" transform="translate(439,440)"/>
<path d="M0 0 C7.54003457 5.60116854 12.5689321 13.45799283 14.32421875 22.7265625 C15.16990285 35.16227784 14.21756792 45.91756814 6.01171875 55.94921875 C-2.22053784 64.61976678 -12.6153055 68.53642055 -24.42578125 68.9765625 C-34.92304183 68.81918228 -43.25195194 64.75540601 -50.875 57.6875 C-59.23397568 48.94225003 -62.08239281 39.12131407 -61.94921875 27.2421875 C-61.08802126 16.16964829 -56.16526623 7.93453543 -48.23828125 0.4140625 C-32.75044391 -9.78524502 -15.65406482 -9.97731604 0 0 Z " fill="#23363B" transform="translate(834.67578125,601.2734375)"/>
<path d="M0 0 C9.13004104 6.71521135 14.71797556 13.7685554 16.875 25.03515625 C18.38954634 35.76950346 16.0448844 46.14348125 10.1875 55.25 C3.7472647 63.44014334 -5.42067064 68.89049544 -15.8125 70.25 C-26.09208955 71.20181385 -35.64637727 69.49422771 -44.1875 63.4375 C-45.42296142 62.40666987 -46.63313057 61.34456084 -47.8125 60.25 C-48.35519531 59.74855469 -48.89789062 59.24710938 -49.45703125 58.73046875 C-57.51682613 50.34420116 -59.53436217 40.36776199 -59.3293457 29.12036133 C-58.7966704 17.38386631 -54.38490799 10.25281277 -45.8125 2.25 C-33.19064984 -8.17674578 -13.67728063 -8.69949482 0 0 Z " fill="#23363B" transform="translate(747.8125,599.75)"/>
<path d="M0 0 C8.07934241 5.54932676 13.33213235 13.30162727 15.64453125 22.81640625 C17.22807931 34.6108256 15.91381345 45.12822279 9.0703125 55.11328125 C1.48757773 64.51657938 -7.84813625 68.67552635 -19.69921875 70.09765625 C-31.26049042 70.60032024 -41.13790082 66.50198976 -49.546875 58.8125 C-57.70238069 50.41668476 -59.67929605 42.1059291 -59.85546875 30.69140625 C-59.87416016 29.85633545 -59.89285156 29.02126465 -59.91210938 28.16088867 C-59.8142726 18.61521816 -55.70757575 10.80372395 -49.35546875 3.81640625 C-35.80712841 -9.33702731 -15.59756303 -9.05313099 0 0 Z " fill="#24383D" transform="translate(563.35546875,600.18359375)"/>
<path d="M0 0 C8.2572207 5.66892665 14.0020246 13.62161231 16.53125 23.33203125 C18.37455532 33.82351072 16.97131016 43.53099599 11.375 52.625 C4.73634772 61.86351856 -3.03631637 67.00907909 -14 69.75 C-26.21086341 70.76757195 -35.98905097 69.54448332 -46 62 C-53.6595414 54.98644402 -58.50020871 46.74004258 -59.2734375 36.3125 C-59.66699244 24.56051214 -57.97911663 15.54409097 -50.375 6.125 C-37.66918915 -7.16054367 -15.61213342 -9.59065739 0 0 Z " fill="#F56301" transform="translate(351,600)"/>
<path d="M0 0 C0.7734375 0.474375 1.546875 0.94875 2.34375 1.4375 C10.57795809 7.14655094 15.7817563 15.26667835 18 25 C19.24320971 38.3350599 17.61672225 48.82248026 8.8125 59.4375 C0.76209574 67.74114546 -9.07034458 70.82706988 -20.4375 71.3125 C-32.19153778 70.96008617 -41.29452483 66.12301466 -49.3125 57.75 C-56.3906808 49.38872268 -58.40848715 39.67278099 -58.27734375 28.93359375 C-57.40816883 19.73992667 -52.81777604 10.65164583 -46.1875 4.25 C-44.19993679 2.64712645 -42.19267442 1.30686573 -40 0 C-39.3296875 -0.41378906 -38.659375 -0.82757812 -37.96875 -1.25390625 C-27.3493473 -6.61969599 -10.10076968 -6.33182577 0 0 Z " fill="#F66302" transform="translate(267,599)"/>
<path d="M0 0 C4.89230061 3.52147141 10.02250299 7.98858028 12.328125 13.67578125 C11.06304636 18.00181941 7.98184902 19.33542328 4.203125 21.42578125 C2.55957031 22.34617187 2.55957031 22.34617187 0.8828125 23.28515625 C0.03976563 23.7440625 -0.80328125 24.20296875 -1.671875 24.67578125 C-2.31125 23.97453125 -2.950625 23.27328125 -3.609375 22.55078125 C-11.26483184 14.89532441 -18.13238998 12.34381503 -28.81225586 12.29077148 C-35.98933119 12.45126453 -41.06586636 14.5938563 -46.47265625 19.21484375 C-53.65785527 26.73879905 -55.21673001 35.37550268 -55.07861328 45.41088867 C-54.70296262 55.38341339 -52.2362787 63.31423993 -44.859375 70.36328125 C-36.93645811 76.11127978 -30.36660686 76.47245482 -20.671875 75.67578125 C-13.91061419 74.47305697 -10.13899419 70.65181275 -5.671875 65.67578125 C-4.681875 64.68578125 -3.691875 63.69578125 -2.671875 62.67578125 C2.278125 65.64578125 7.228125 68.61578125 12.328125 71.67578125 C8.5501874 81.12062526 0.71345482 88.7266984 -8.5390625 93 C-21.72382304 97.68535755 -35.8315961 97.18854099 -48.671875 91.67578125 C-63.16003604 84.70000001 -69.91417987 73.76661805 -75.6171875 59.2734375 C-79.41898557 45.75295844 -77.19908993 29.19488315 -70.921875 16.92578125 C-63.65606173 4.56146331 -53.52727007 -2.92846726 -39.72509766 -6.88183594 C-26.01143346 -9.83655169 -11.7162187 -7.42395619 0 0 Z " fill="#F66402" transform="translate(189.671875,574.32421875)"/>
<path d="M0 0 C6.27 0 12.54 0 19 0 C19.33 19.14 19.66 38.28 20 58 C24.62 52.06 29.24 46.12 34 40 C41 31 41 31 43 29 C45.33837891 28.77294922 45.33837891 28.77294922 48.2265625 28.8046875 C49.7734375 28.81435547 49.7734375 28.81435547 51.3515625 28.82421875 C52.97191406 28.84935547 52.97191406 28.84935547 54.625 28.875 C55.71296875 28.88402344 56.8009375 28.89304687 57.921875 28.90234375 C60.61480152 28.92596591 63.30729255 28.95890444 66 29 C63.12324229 33.4361217 60.03869279 37.61231461 56.75 41.75 C56.27127441 42.35763184 55.79254883 42.96526367 55.29931641 43.59130859 C53.07137241 46.41396571 50.82340158 49.21472125 48.5390625 51.9921875 C47.82492187 52.86101563 47.11078125 53.72984375 46.375 54.625 C45.74335938 55.38039063 45.11171875 56.13578125 44.4609375 56.9140625 C42.93276198 59.09600294 42.32464383 60.37347535 42 63 C42.88879059 64.87881555 42.88879059 64.87881555 44.39453125 66.6171875 C44.93343994 67.30006836 45.47234863 67.98294922 46.02758789 68.68652344 C46.61660889 69.4087207 47.20562988 70.13091797 47.8125 70.875 C49.01754437 72.39691973 50.22064406 73.92038109 51.421875 75.4453125 C52.02580078 76.2074707 52.62972656 76.96962891 53.25195312 77.75488281 C56.21466228 81.56006066 58.9826489 85.49751975 61.7512207 89.44482422 C63.52187074 91.96030496 65.32080406 94.3895871 67.27734375 96.765625 C69 99 69 99 69 101 C49.9466864 103.85689823 49.9466864 103.85689823 43.71533203 99.34619141 C39.79900972 95.13738797 36.96609544 90.31282792 34.26074219 85.26513672 C32.42789409 81.97211491 30.24714506 79.0218828 28 76 C25.10637962 77.29714017 23.00915986 78.52678223 21 81 C20.49844978 83.2143507 20.49844978 83.2143507 20.48828125 85.66796875 C20.45516846 86.47258545 20.42205566 87.27720215 20.38793945 88.10620117 C20.35059692 89.63144409 20.35059692 89.63144409 20.3125 91.1875 C20.209375 94.425625 20.10625 97.66375 20 101 C13.4 101 6.8 101 0 101 C0 67.67 0 34.34 0 0 Z " fill="#F56402" transform="translate(376,567)"/>
<path d="M0 0 C1.13143433 -0.0071553 2.26286865 -0.01431061 3.42858887 -0.02168274 C4.67589279 -0.02437164 5.92319672 -0.02706055 7.20829773 -0.02983093 C9.17178665 -0.03968773 9.17178665 -0.03968773 11.17494202 -0.04974365 C14.77214589 -0.06715847 18.36933646 -0.0777067 21.96657205 -0.08594918 C24.21359949 -0.09109832 26.4606228 -0.09717409 28.70764732 -0.10346031 C35.73691446 -0.12251374 42.76617109 -0.13674455 49.79545909 -0.14507228 C57.91175477 -0.15484633 66.02777785 -0.18116933 74.14397746 -0.22157317 C80.4158086 -0.25172484 86.68756156 -0.26654024 92.95946378 -0.26985329 C96.70611387 -0.27220488 100.45247278 -0.28117889 104.19904518 -0.30631447 C108.37938751 -0.33390683 112.55912017 -0.32976701 116.73954773 -0.32279968 C117.98077896 -0.33560974 119.22201019 -0.3484198 120.50085449 -0.36161804 C122.21069519 -0.35120232 122.21069519 -0.35120232 123.95507812 -0.34057617 C125.43757286 -0.3441587 125.43757286 -0.3441587 126.95001698 -0.34781361 C130.43572363 0.28698138 132.11409139 1.74521738 134.66801453 4.14717102 C137.11839682 7.81910887 136.86143866 10.71303309 136.28129578 14.95576477 C135.32577374 18.37008235 133.4323597 20.04100327 130.66801453 22.14717102 C127.61048944 23.16634605 125.53099508 23.27773599 122.32966614 23.28761292 C121.22209961 23.29332306 120.11453308 23.2990332 118.97340393 23.30491638 C117.7577475 23.30603424 116.54209106 23.3071521 115.28959656 23.30830383 C113.36977966 23.31575119 113.36977966 23.31575119 111.41117859 23.323349 C107.89873636 23.33646468 104.38631324 23.34291621 100.87385035 23.34735966 C98.67924779 23.35029145 96.48465044 23.35439644 94.29005051 23.35886383 C87.42310012 23.37253596 80.55616166 23.38220427 73.68919861 23.38606572 C65.76313262 23.39054731 57.83723901 23.40810092 49.91122544 23.43706632 C43.78374539 23.45868162 37.65631385 23.4687699 31.52879608 23.47010684 C27.86940691 23.47115489 24.21017986 23.47706269 20.55083084 23.49492645 C16.4688546 23.51446603 12.38723937 23.51011881 8.30522156 23.50361633 C7.09361359 23.51283112 5.88200562 23.5220459 4.63368225 23.53153992 C3.52047607 23.52597076 2.4072699 23.52040161 1.2603302 23.5146637 C0.29542223 23.51613026 -0.66948574 23.51759682 -1.66363335 23.51910782 C-5.69214233 22.95758121 -8.34471907 21.18856387 -11.11323547 18.26826477 C-13.31805055 14.43103854 -13.092845 10.42181818 -12.33198547 6.14717102 C-8.53768004 1.25451401 -5.99656732 0.02595852 0 0 Z " fill="#F56300" transform="translate(214.3319854736328,303.8528289794922)"/>
<path d="M0 0 C2.144132 -0.01403291 4.28234196 -0.08127372 6.42529297 -0.15087891 C16.32501408 -0.31242447 16.32501408 -0.31242447 20.27392578 1.98266602 C22.08094112 3.7506227 23.48676476 5.5276771 24.91357422 7.61083984 C25.81048408 8.69889443 26.7113847 9.78367454 27.61669922 10.86474609 C28.47056186 11.96381803 29.31941055 13.06680098 30.16357422 14.17333984 C31.11382444 15.40271573 32.06435338 16.63187622 33.01513672 17.86083984 C33.49370117 18.48216797 33.97226562 19.10349609 34.46533203 19.74365234 C35.87864419 21.56580531 37.30982027 23.37198196 38.74951172 25.17333984 C43.31923542 30.89524183 47.81577309 36.67199941 52.10107422 42.61083984 C52.83712891 43.62146484 53.57318359 44.63208984 54.33154297 45.67333984 C56.13969615 49.03070082 56.56506331 50.8582627 55.91357422 54.61083984 C53.62697891 56.92451936 52.23129206 57.56950959 48.98509216 57.99179077 C47.84830521 57.99417755 46.71151825 57.99656433 45.5402832 57.99902344 C43.60323769 58.01320816 43.60323769 58.01320816 41.62705994 58.02767944 C40.22125949 58.02231016 38.81546184 58.01615732 37.40966797 58.00927734 C35.96525424 58.01129881 34.52084151 58.01421085 33.07643127 58.01797485 C30.05272685 58.02239344 27.02928867 58.01598149 24.00561523 58.00195312 C20.1293826 57.98484581 16.25377242 57.99471457 12.37756252 58.01267052 C9.39642134 58.02350806 6.41542792 58.0200625 3.4342823 58.01228714 C2.00493356 58.01028583 0.57557141 58.01274202 -0.85376167 58.0197258 C-2.85001495 58.02734055 -4.84631528 58.01367721 -6.8425293 57.99902344 C-8.54651634 57.99544327 -8.54651634 57.99544327 -10.28492737 57.99179077 C-13.08642578 57.61083984 -13.08642578 57.61083984 -14.95240784 56.39749146 C-16.45635519 54.02801399 -16.46709988 52.43736789 -16.47460938 49.63623047 C-16.48406586 48.62508179 -16.49352234 47.61393311 -16.50326538 46.57214355 C-16.49719269 45.48147583 -16.49112 44.39080811 -16.48486328 43.26708984 C-16.48773346 42.14645142 -16.49060364 41.02581299 -16.49356079 39.87121582 C-16.49560325 37.50072729 -16.49006077 35.13022197 -16.47753906 32.75976562 C-16.46148878 29.12510601 -16.47738247 25.4915585 -16.49658203 21.85693359 C-16.49459963 19.55614988 -16.49075603 17.25536686 -16.48486328 14.95458984 C-16.49093597 13.86392212 -16.49700867 12.77325439 -16.50326538 11.64953613 C-16.4938089 10.63838745 -16.48435242 9.62723877 -16.47460938 8.58544922 C-16.4722226 7.69515015 -16.46983582 6.80485107 -16.46737671 5.88757324 C-15.16741219 -1.88159706 -6.07718667 0.01521718 0 0 Z " fill="#FEFDF8" transform="translate(666.08642578125,311.38916015625)"/>
<path d="M0 0 C24.75 0 49.5 0 75 0 C75 6.27 75 12.54 75 19 C66.42 19 57.84 19 49 19 C49 45.73 49 72.46 49 100 C42.4 100 35.8 100 29 100 C29 73.27 29 46.54 29 19 C19.43 19 9.86 19 0 19 C0 12.73 0 6.46 0 0 Z " fill="#283D42" transform="translate(435,568)"/>
<path d="M0 0 C0.9715654 -0.0071553 1.9431308 -0.01431061 2.94413757 -0.02168274 C4.01377747 -0.02437164 5.08341736 -0.02706055 6.18547058 -0.02983093 C7.87098274 -0.03968773 7.87098274 -0.03968773 9.59054565 -0.04974365 C13.3216508 -0.06950933 17.05271566 -0.08114596 20.78385925 -0.09111023 C22.05556158 -0.09518576 23.32726391 -0.09926128 24.63750267 -0.10346031 C30.67258555 -0.12218 36.70764391 -0.13674323 42.74274808 -0.14507228 C49.70841379 -0.15484437 56.6737617 -0.18116255 63.63931543 -0.22157317 C69.67279645 -0.25537466 75.7061232 -0.26721749 81.73970604 -0.27127647 C84.30618636 -0.27615686 86.87266293 -0.28781179 89.43908119 -0.30631447 C93.02798076 -0.33058226 96.61604586 -0.32976312 100.20500183 -0.32279968 C101.26856903 -0.33560974 102.33213623 -0.3484198 103.42793274 -0.36161804 C110.64484133 -0.31048373 110.64484133 -0.31048373 114.50631714 2.06326294 C117.44502568 5.3155004 118.2749421 7.11769794 118.764328 11.52217102 C118.3085072 15.9284388 117.32101848 17.83962279 114.389328 21.14717102 C108.45861695 24.42586375 103.2955036 24.58155822 96.608078 24.55122375 C95.5454071 24.55808701 94.48273621 24.56495026 93.38786316 24.57202148 C89.88821411 24.59026724 86.38901424 24.58645539 82.889328 24.58076477 C80.4498734 24.58532722 78.01042008 24.59063298 75.57096863 24.59664917 C70.46349356 24.60557562 65.3561749 24.60316182 60.248703 24.59321594 C53.70833846 24.58171984 47.1685133 24.60195064 40.6282196 24.63113308 C35.59241821 24.64948979 30.55674625 24.64920374 25.5209198 24.64349556 C23.10961652 24.64334232 20.69830449 24.64938877 18.28703308 24.66178703 C14.91453809 24.67668665 11.54304202 24.66602677 8.170578 24.64888 C7.17816101 24.65854797 6.18574402 24.66821594 5.16325378 24.67817688 C-0.95251503 24.61316155 -4.63370274 23.78337346 -9.610672 20.14717102 C-12.43859993 15.90527912 -12.39189485 12.12843359 -11.610672 7.14717102 C-8.85169176 2.01895497 -5.68027728 0.02865654 0 0 Z " fill="#F56604" transform="translate(256.6106719970703,249.8528289794922)"/>
<path d="M0 0 C28.97104405 0 28.97104405 0 38.86328125 9.51953125 C41.89039615 13.03364087 43.65762356 16.58451018 45 21 C45.18949219 21.60972656 45.37898437 22.21945312 45.57421875 22.84765625 C47.46044747 32.38262897 46.55544631 42.71981914 41.74609375 51.21484375 C36.58442015 58.76748332 30.67762046 61.52067987 22 64 C14.74 64 7.48 64 0 64 C0 42.88 0 21.76 0 0 Z " fill="#FDFCF8" transform="translate(613,586)"/>
<path d="M0 0 C-1.10690752 6.40593286 -2.33945169 12.71363856 -4 19 C-4.6290625 18.95359375 -5.258125 18.9071875 -5.90625 18.859375 C-11.99949331 18.602431 -17.11153403 19.05987384 -22 23 C-25.8316044 27.7220393 -25.47305242 32.53192998 -25.51171875 38.33203125 C-25.52966995 39.32377853 -25.54762115 40.31552582 -25.56611633 41.33732605 C-25.62016968 44.49567451 -25.65409952 47.65387225 -25.6875 50.8125 C-25.72067742 52.95770324 -25.75516747 55.10288661 -25.79101562 57.24804688 C-25.87835756 62.49871903 -25.93846971 67.74870834 -26 73 C-32.6 73 -39.2 73 -46 73 C-46 49.24 -46 25.48 -46 1 C-39.73 1 -33.46 1 -27 1 C-26.67 3.97 -26.34 6.94 -26 10 C-25.56429687 9.45730469 -25.12859375 8.91460938 -24.6796875 8.35546875 C-17.61087075 -0.13629163 -10.84173393 -3.04157241 0 0 Z " fill="#23363B" transform="translate(907,595)"/>
<path d="M0 0 C0.6748645 -0.0065712 1.349729 -0.0131424 2.04504395 -0.01991272 C4.28816834 -0.03969246 6.53122556 -0.05132021 8.77441406 -0.0612793 C9.5395356 -0.06535482 10.30465714 -0.06943035 11.09296417 -0.07362938 C15.14465569 -0.09451273 19.19631313 -0.10880306 23.24804688 -0.11816406 C27.43246996 -0.12921733 31.6163596 -0.16359761 35.80059433 -0.20333576 C39.01768984 -0.22949632 42.23465837 -0.23785549 45.45185089 -0.24144554 C46.99401695 -0.2463151 48.53617719 -0.25793974 50.07823944 -0.27648354 C52.24008698 -0.30085867 54.40055683 -0.29991361 56.5625 -0.29296875 C57.79192322 -0.29883499 59.02134644 -0.30470123 60.2880249 -0.31074524 C64.14952563 0.26841464 65.78692599 1.46373667 68.54003906 4.17700195 C70.39247822 7.88188027 69.99855526 12.13314383 69.54003906 16.17700195 C67.20230064 20.33298137 64.99007049 21.7379678 60.54003906 23.17700195 C57.50476074 23.43769836 57.50476074 23.43769836 54.08496094 23.45166016 C52.15771179 23.46595818 52.15771179 23.46595818 50.19152832 23.48054504 C48.79728162 23.48028363 47.40303491 23.47934663 46.00878906 23.4777832 C44.57059608 23.48167309 43.13240424 23.48600836 41.69421387 23.49076843 C38.68493926 23.49821648 35.67578202 23.49794928 32.66650391 23.49267578 C28.81630866 23.48687683 24.96659379 23.50382878 21.11647797 23.52702045 C18.1481446 23.54177256 15.17992664 23.54262762 12.21156311 23.53951073 C10.79223172 23.540023 9.37289371 23.54524308 7.95359802 23.55532265 C5.9674753 23.56769968 3.98125514 23.55894508 1.99511719 23.54931641 C0.86658325 23.54994583 -0.26195068 23.55057526 -1.42468262 23.55122375 C-5.68945795 23.02541632 -8.31327786 21.38655143 -11.24121094 18.2980957 C-13.44428596 14.46389782 -13.22712222 10.44822423 -12.45996094 6.17700195 C-10.02246094 3.11450195 -10.02246094 3.11450195 -7.45996094 1.17700195 C-5.59758756 -0.68537143 -2.48774718 0.01997153 0 0 Z " fill="#F56400" transform="translate(257.4599609375,357.822998046875)"/>
<path d="M0 0 C8.07934241 5.54932676 13.33213235 13.30162727 15.64453125 22.81640625 C17.22592103 34.59475053 15.98073402 45.29608327 8.96484375 55.18359375 C5.64360134 59.21336788 2.14088389 62.18439495 -2.35546875 64.81640625 C-4.90575858 63.54126133 -5.28628586 62.41299328 -6.35546875 59.81640625 C-6.35546875 58.82640625 -6.35546875 57.83640625 -6.35546875 56.81640625 C-7.67546875 56.15640625 -8.99546875 55.49640625 -10.35546875 54.81640625 C-9.69546875 54.81640625 -9.03546875 54.81640625 -8.35546875 54.81640625 C-8.35546875 54.15640625 -8.35546875 53.49640625 -8.35546875 52.81640625 C-9.05671875 52.96078125 -9.75796875 53.10515625 -10.48046875 53.25390625 C-11.42921875 53.43953125 -12.37796875 53.62515625 -13.35546875 53.81640625 C-14.30421875 54.02265625 -15.25296875 54.22890625 -16.23046875 54.44140625 C-19.79762604 54.86946513 -22.83255284 54.45053111 -26.35546875 53.81640625 C-26.35546875 53.48640625 -26.35546875 53.15640625 -26.35546875 52.81640625 C-25.26878906 52.66945313 -25.26878906 52.66945313 -24.16015625 52.51953125 C-16.05714345 51.29264157 -16.05714345 51.29264157 -9.35546875 46.81640625 C-4.98869699 40.36891566 -4.33194209 33.41531633 -5.35546875 25.81640625 C-6.96557144 20.52114876 -9.52338425 16.65262976 -14.35546875 13.81640625 C-17.64932251 12.64761943 -20.97071534 11.6839547 -24.35546875 10.81640625 C-24.35546875 10.48640625 -24.35546875 10.15640625 -24.35546875 9.81640625 C-21.38546875 10.14640625 -18.41546875 10.47640625 -15.35546875 10.81640625 C-16.32484375 10.56890625 -17.29421875 10.32140625 -18.29296875 10.06640625 C-19.30359375 9.65390625 -20.31421875 9.24140625 -21.35546875 8.81640625 C-22.23046875 6.69140625 -22.23046875 6.69140625 -22.35546875 4.81640625 C-21.36546875 4.48640625 -20.37546875 4.15640625 -19.35546875 3.81640625 C-18.67588272 1.41921193 -18.67588272 1.41921193 -18.35546875 -1.18359375 C-20.88861651 -3.71674151 -21.84373251 -3.48112896 -25.35546875 -3.49609375 C-31.07349668 -3.41300484 -36.00908796 -2.13194944 -41.35546875 -0.18359375 C-41.35546875 -0.84359375 -41.35546875 -1.50359375 -41.35546875 -2.18359375 C-26.86590064 -7.93831584 -13.598571 -7.89287688 0 0 Z " fill="#223539" transform="translate(563.35546875,600.18359375)"/>
<path d="M0 0 C1.39935013 2.79870027 1.25265405 4.90498792 1 8 C-1.26331379 10.98277778 -3.92849506 11.90776559 -7.375 13.1875 C-32.47428463 23.31209066 -51.65101969 43.74044476 -63 68 C-64.74151612 72.24315954 -66.31112311 76.54106993 -67.79345703 80.88110352 C-68.05626465 81.64994873 -68.31907227 82.41879395 -68.58984375 83.2109375 C-68.81534912 83.89462402 -69.04085449 84.57831055 -69.27319336 85.28271484 C-70 87 -70 87 -72 89 C-75.4375 89.375 -75.4375 89.375 -79 89 C-81.04704885 86.96213074 -81.95289465 85.74561041 -82.13671875 82.8359375 C-77.13089919 55.4127521 -56.82455368 29.26967842 -34.48706055 13.57373047 C-9.85084663 -3.12343918 -9.85084663 -3.12343918 0 0 Z " fill="#FEFBF6" transform="translate(476,242)"/>
<path d="M0 0 C5.60408618 2.70197012 9.01991742 6.45178528 11.25 12.25 C12.90703837 20.53519183 12.44637491 27.59368366 8 35 C3.9021167 39.06994318 -0.55457081 41.13066468 -6.3125 41.25 C-12.24429562 41.15386069 -15.58023781 39.45202951 -19.75 35.1875 C-24.43712626 28.54740447 -24.83582589 21.95079379 -24 14 C-22.27175444 8.01987757 -18.97132723 4.56638693 -14 1 C-9.81634937 -1.09182531 -4.55592381 -0.42935408 0 0 Z " fill="#FEFCF6" transform="translate(336,612)"/>
<path d="M0 0 C4.83542754 4.36367851 8.10614946 8.51311641 8.8984375 15.109375 C8.98927954 21.97703351 8.38047147 27.47397869 4.5625 33.3125 C0.38085819 37.49414181 -3.83290229 39.36527379 -9.6875 39.8125 C-15.39474533 39.6409968 -19.45146109 37.32245514 -23.4375 33.3125 C-27.08657657 27.51517674 -28.56514964 21.07839786 -27.4375 14.3125 C-25.63338568 7.54200356 -23.3161667 3.18991846 -17.4375 -0.6875 C-11.62364524 -2.62545159 -5.51641224 -2.70805692 0 0 Z " fill="#FEFCF6" transform="translate(256.4375,613.6875)"/>
<path d="M0 0 C5.24094777 2.73984471 8.03007342 6.81678275 9.86328125 12.31640625 C10.47622875 20.22443388 10.9865562 27.83005815 5.86328125 34.31640625 C1.94720161 38.38585715 -1.70520568 40.44018466 -7.38671875 40.62890625 C-12.42659063 40.56334694 -15.0659807 39.2696868 -19.13671875 36.31640625 C-25.0858616 30.04568811 -25.58474769 24.15341556 -25.453125 15.7734375 C-24.89707554 9.69808232 -22.94794448 6.0392795 -18.57421875 1.87890625 C-13.1844349 -1.57608339 -6.07974959 -1.94507528 0 0 Z " fill="#FDFCF8" transform="translate(734.13671875,612.68359375)"/>
<path d="M0 0 C5.1696456 2.4925077 8.63131383 6.10015772 11.0859375 11.30078125 C13.24501699 17.67652452 12.85025455 24.79431682 10.3125 31 C7.98674573 35.52866942 5.13766238 37.84450682 0.6875 40.25 C-4.24405543 41.62624803 -8.34573558 41.5624499 -13.125 39.9375 C-17.64346921 36.89244466 -21.26026194 33.21921417 -23 28 C-24.28339262 11.51757192 -24.28339262 11.51757192 -19.46484375 5.484375 C-13.57665672 -0.48232119 -8.13738921 -1.10659551 0 0 Z " fill="#FDFCF8" transform="translate(547,612)"/>
<path d="M0 0 C5.17786166 2.49646901 8.64751452 6.11081954 11.08984375 11.328125 C13.30414734 17.82848405 12.66239593 25.0455481 9.90625 31.28515625 C6.98786903 36.80743748 3.97200735 39.10886434 -2 41 C-7.33877195 41.75383047 -11.49706895 41.03458397 -16 38 C-22.265811 31.79288512 -23.33872611 26.79827155 -23.38720703 18.12988281 C-23.22948364 10.30042256 -20.82928094 6.76027408 -15.4375 1.5 C-10.29517977 -0.74392156 -5.52295971 -0.75106183 0 0 Z " fill="#FDFCF8" transform="translate(817,612)"/>
<path d="M0 0 C4.41026006 2.45014448 7.08812558 5.30125117 9.375 9.875 C10.08876214 16.25368443 10.56354237 22.16585639 6.6875 27.5625 C2.6417002 32.02132809 -0.64503648 32.94926194 -6.5625 33.25 C-11.33730817 33.14357783 -13.97221681 32.09292805 -17.625 28.875 C-22.14274724 23.99094893 -23.06145835 19.77002441 -22.96484375 13.25390625 C-22.26685814 8.36800699 -19.71646993 4.63859103 -15.98046875 1.48828125 C-10.52047324 -2.02435695 -6.00972206 -1.86508616 0 0 Z " fill="#212D30" transform="translate(549.625,706.125)"/>
<path d="M0 0 C4.83831756 2.3295603 7.6006196 5.20123921 10 10 C10.94838947 15.32803075 9.99731458 19.45235029 7 24 C3.3200984 27.40390898 0.73471382 28.8690782 -4.3125 29.25 C-9.39792403 28.90522549 -12.48643296 27.30903095 -16.3125 24 C-19.42015355 20.31685505 -19.50579541 16.2887335 -19.4921875 11.6484375 C-18.6230304 6.97154454 -15.50448131 4.03668855 -12 1 C-8.285392 -0.857304 -4.05406882 -0.44282906 0 0 Z " fill="#FEFCF6" transform="translate(425,460)"/>
<path d="M0 0 C3.69430917 2.43488559 6.06648627 4.5061924 7.35546875 8.85546875 C8.22660951 13.86668444 7.7498159 17.66384264 5.171875 22.078125 C2.56999193 25.2518505 -0.30037615 26.80067057 -4.25 27.8125 C-8.45451753 28.22428264 -11.75691038 27.77533349 -15.33984375 25.46484375 C-21.06161229 20.70255378 -21.06161229 20.70255378 -21.48828125 16.421875 C-21.60838346 11.79477935 -21.59935793 8.56496324 -19.625 4.3125 C-13.93922213 -1.67252934 -7.56580487 -2.7644287 0 0 Z " fill="#FEFCF6" transform="translate(683.25,461.1875)"/>
<path d="M0 0 C41 0 41 0 55 3 C54.67 3.66 54.34 4.32 54 5 C53.67 5 53.34 5 53 5 C52.67 6.65 52.34 8.3 52 10 C54.475 10.495 54.475 10.495 57 11 C57.25 13.75 57.25 13.75 57 17 C55 19.375 55 19.375 53 21 C53.53109375 21.42410156 54.0621875 21.84820313 54.609375 22.28515625 C59.25347229 26.14111294 62.54359694 29.44639308 65 35 C64.67 35.99 64.34 36.98 64 38 C63.731875 37.43152344 63.46375 36.86304688 63.1875 36.27734375 C59.27668768 28.57149973 54.78547971 23.11353827 46.42578125 20.34765625 C40.91340989 18.79807926 35.57618566 18.45262746 29.875 18.3125 C28.91851563 18.27833984 27.96203125 18.24417969 26.9765625 18.20898438 C24.65115927 18.12759526 22.32608124 18.05810388 20 18 C20 17.67 20 17.34 20 17 C25.28 16.67 30.56 16.34 36 16 C36 15.01 36 14.02 36 13 C36 11.68 36 10.36 36 9 C36.99 9.33 37.98 9.66 39 10 C39.33 7.69 39.66 5.38 40 3 C20.695 2.505 20.695 2.505 1 2 C1 33.68 1 65.36 1 98 C34.52438855 99.09366179 34.52438855 99.09366179 65 90 C65.66 90.33 66.32 90.66 67 91 C65.28144648 91.95681629 63.5492314 92.88908912 61.8125 93.8125 C60.84957031 94.33457031 59.88664063 94.85664062 58.89453125 95.39453125 C39.52704437 103.37852032 21.61103769 100 0 100 C0 67 0 34 0 0 Z " fill="#1C262A" transform="translate(593,568)"/>
<path d="M0 0 C2.701875 -0.0825 5.40375 -0.165 8.1875 -0.25 C9.02949951 -0.28641602 9.87149902 -0.32283203 10.73901367 -0.36035156 C14.67603679 -0.41837972 16.56872297 -0.27286024 19.98828125 1.890625 C23.09319378 5.14626144 23.33388054 7.4606404 23.29296875 11.9609375 C22.83745033 15.13134567 21.24684343 16.8192402 19 19 C18.34 19.33 17.68 19.66 17 20 C18.46818668 23.10742423 20.20025 25.90471739 22.125 28.75 C22.66382813 29.54921875 23.20265625 30.3484375 23.7578125 31.171875 C24.16773438 31.77515625 24.57765625 32.3784375 25 33 C20.76843388 33.9697339 20.76843388 33.9697339 18 33 C15.6580459 30.31479104 13.78654441 27.5211085 11.89453125 24.50390625 C10.09305495 21.57892332 10.09305495 21.57892332 6 21 C6 24.96 6 28.92 6 33 C4.02 33 2.04 33 0 33 C0 22.11 0 11.22 0 0 Z " fill="#121B1E" transform="translate(164,706)"/>
<path d="M0 0 C16 0 16 0 21 4 C22.61460384 7.22920769 22.59468691 10.50944639 22 14 C20.58369249 16.51553124 19.13116783 17.97031635 17 20 C16.34 20 15.68 20 15 20 C15.5775 20.77085937 16.155 21.54171875 16.75 22.3359375 C17.4925 23.33882812 18.235 24.34171875 19 25.375 C20.11375 26.87160156 20.11375 26.87160156 21.25 28.3984375 C23 31 23 31 23 33 C20.2421875 33.3046875 20.2421875 33.3046875 17 33 C14.8828125 30.8828125 14.8828125 30.8828125 13.125 28.125 C12.52945312 27.22007812 11.93390625 26.31515625 11.3203125 25.3828125 C10 23 10 23 10 21 C8.35 21 6.7 21 5 21 C5 24.96 5 28.92 5 33 C3.35 33 1.7 33 0 33 C0 22.11 0 11.22 0 0 Z " fill="#152226" transform="translate(347,706)"/>
<path d="M0 0 C5 0 5 0 6.71337891 1.40527344 C7.46240479 2.37255371 7.46240479 2.37255371 8.2265625 3.359375 C9.061875 4.41511719 9.061875 4.41511719 9.9140625 5.4921875 C10.76097656 6.60980469 10.76097656 6.60980469 11.625 7.75 C12.19734375 8.47960937 12.7696875 9.20921875 13.359375 9.9609375 C14.9235056 11.96156966 16.46794138 13.97474091 18 16 C18.55606934 16.67836914 19.11213867 17.35673828 19.68505859 18.05566406 C21 20 21 20 21 23 C21.66 23 22.32 23 23 23 C22.67 22.34 22.34 21.68 22 21 C21.91599471 19.40552536 21.89272533 17.80759455 21.90234375 16.2109375 C21.90556641 15.26992188 21.90878906 14.32890625 21.91210938 13.359375 C21.92048828 12.37453125 21.92886719 11.3896875 21.9375 10.375 C21.94201172 9.38242187 21.94652344 8.38984375 21.95117188 7.3671875 C21.96297855 4.9113984 21.979446 2.45572896 22 0 C23.98 0 25.96 0 28 0 C28 10.89 28 21.78 28 33 C26.35 33 24.7 33 23 33 C21.1094314 31.06079941 19.66241476 29.31613545 18.125 27.125 C17.69590332 26.54016846 17.26680664 25.95533691 16.82470703 25.3527832 C15.53175557 23.58070184 14.26328067 21.793318 13 20 C12.27296875 18.98035156 11.5459375 17.96070313 10.796875 16.91015625 C9.17987217 14.61940223 7.58706569 12.31159569 6 10 C5.67 17.59 5.34 25.18 5 33 C3.35 33 1.7 33 0 33 C0 22.11 0 11.22 0 0 Z " fill="#2D393C" transform="translate(670,706)"/>
<path d="M0 0 C5 0 5 0 6.69750977 1.37353516 C7.19049561 2.00565918 7.68348145 2.6377832 8.19140625 3.2890625 C8.74376953 3.98386719 9.29613281 4.67867187 9.86523438 5.39453125 C10.42533203 6.13058594 10.98542969 6.86664062 11.5625 7.625 C12.12646484 8.33785156 12.69042969 9.05070313 13.27148438 9.78515625 C16.3909012 13.76195664 19.18487137 17.77730705 22 22 C22.33 14.74 22.66 7.48 23 0 C24.65 0 26.3 0 28 0 C28 10.89 28 21.78 28 33 C22.2653545 31.8530709 21.63258069 30.96098377 18.125 26.5625 C17.69590332 26.02915039 17.26680664 25.49580078 16.82470703 24.94628906 C12.9871544 20.12250974 9.45341622 15.10505006 6 10 C6 17.59 6 25.18 6 33 C4.02 33 2.04 33 0 33 C0 22.11 0 11.22 0 0 Z " fill="#1A262A" transform="translate(753,706)"/>
<path d="M0 0 C5 0 5 0 7.4296875 2.2734375 C8.64011719 3.80871094 8.64011719 3.80871094 9.875 5.375 C10.51864502 6.18179199 10.51864502 6.18179199 11.17529297 7.00488281 C14.99976479 11.8521619 18.54095763 16.88663302 22 22 C22.33 14.74 22.66 7.48 23 0 C24.65 0 26.3 0 28 0 C28 10.89 28 21.78 28 33 C22.37413623 31.87482725 22.37413623 31.87482725 20.0625 28.8671875 C19.30839844 27.90425781 19.30839844 27.90425781 18.5390625 26.921875 C18.03117188 26.24640625 17.52328125 25.5709375 17 24.875 C16.49210938 24.22273437 15.98421875 23.57046875 15.4609375 22.8984375 C12.19117427 18.67289732 9.10920344 14.35288482 6 10 C6 17.59 6 25.18 6 33 C4.02 33 2.04 33 0 33 C0 22.11 0 11.22 0 0 Z " fill="#141D21" transform="translate(568,706)"/>
<path d="M0 0 C1.65 0 3.3 0 5 0 C5 4.62 5 9.24 5 14 C10.28 14 15.56 14 21 14 C21 9.38 21 4.76 21 0 C22.98 0 24.96 0 27 0 C27 10.89 27 21.78 27 33 C25.02 33 23.04 33 21 33 C21 28.05 21 23.1 21 18 C15.72 18 10.44 18 5 18 C5 22.95 5 27.9 5 33 C3.35 33 1.7 33 0 33 C0 22.11 0 11.22 0 0 Z " fill="#151F22" transform="translate(255,706)"/>
<path d="M0 0 C2.97672584 1.77280561 5.42804007 3.85608015 7 7 C7.51512617 11.09157355 7.94367269 15.23589546 5.953125 18.95703125 C4.18601378 21.09315687 2.49101659 22.75449171 0 24 C-7.08958838 24.5811138 -7.08958838 24.5811138 -10.9375 22.125 C-14.65366621 18.29622269 -14.38644845 14.93092912 -14.359375 9.7734375 C-13.80289254 5.47884463 -12.16828113 3.86654007 -9 1 C-5.85088521 -0.57455739 -3.47991184 -0.34799118 0 0 Z " fill="#FCFBF8" transform="translate(547,710)"/>
<path d="M0 0 C6.93 0 13.86 0 21 0 C21 1.65 21 3.3 21 5 C16.05 5 11.1 5 6 5 C6 7.97 6 10.94 6 14 C10.62 14 15.24 14 20 14 C20 15.65 20 17.3 20 19 C15.38 19 10.76 19 6 19 C6 21.97 6 24.94 6 28 C10.95 28 15.9 28 21 28 C21 29.65 21 31.3 21 33 C14.07 33 7.14 33 0 33 C0 22.11 0 11.22 0 0 Z " fill="#12191D" transform="translate(196,706)"/>
<path d="M0 0 C6.93 0 13.86 0 21 0 C21 1.65 21 3.3 21 5 C15.72 5 10.44 5 5 5 C5 7.97 5 10.94 5 14 C9.95 14 14.9 14 20 14 C20 15.65 20 17.3 20 19 C15.05 19 10.1 19 5 19 C5 21.97 5 24.94 5 28 C10.28 28 15.56 28 21 28 C21 29.65 21 31.3 21 33 C14.07 33 7.14 33 0 33 C0 22.11 0 11.22 0 0 Z " fill="#162327" transform="translate(640,706)"/>
<path d="M0 0 C1.93855226 0.72996995 3.85261141 1.52429033 5.76171875 2.328125 C5.10171875 3.978125 4.44171875 5.628125 3.76171875 7.328125 C3.12234375 6.998125 2.48296875 6.668125 1.82421875 6.328125 C-2.25064966 4.99755572 -5.9901855 5.16153301 -10.23828125 5.328125 C-10.19187454 7.74267245 -10.19187454 7.74267245 -9.23828125 10.328125 C-6.62886548 12.06566812 -6.62886548 12.06566812 -3.42578125 13.328125 C1.22572453 15.32243686 3.99852493 17.01354767 6.76171875 21.328125 C6.92334989 25.85379692 6.23779508 27.73929375 3.38671875 31.265625 C-0.3393432 33.98367019 -4.1160414 33.95923269 -8.6015625 33.76953125 C-12.38196754 33.13666344 -14.362944 31.81490316 -17.23828125 29.328125 C-16.57828125 28.008125 -15.91828125 26.688125 -15.23828125 25.328125 C-14.59890625 25.658125 -13.95953125 25.988125 -13.30078125 26.328125 C-9.22591284 27.65869428 -5.486377 27.49471699 -1.23828125 27.328125 C-0.90828125 25.678125 -0.57828125 24.028125 -0.23828125 22.328125 C-3.84342405 20.07491075 -7.52507605 18.18643093 -11.37109375 16.390625 C-13.40417741 15.23372384 -14.76258136 14.14368304 -16.23828125 12.328125 C-16.73828125 8.953125 -16.73828125 8.953125 -16.23828125 5.328125 C-11.54668346 -0.35117759 -7.33940581 -2.20310262 0 0 Z " fill="#192226" transform="translate(428.23828125,705.671875)"/>
<path d="M0 0 C6.6 0 13.2 0 20 0 C20 1.65 20 3.3 20 5 C15.05 5 10.1 5 5 5 C5 7.97 5 10.94 5 14 C9.62 14 14.24 14 19 14 C19 15.32 19 16.64 19 18 C14.38 18 9.76 18 5 18 C5 21.3 5 24.6 5 28 C10.28 28 15.56 28 21 28 C21 29.65 21 31.3 21 33 C14.07 33 7.14 33 0 33 C0 22.11 0 11.22 0 0 Z " fill="#19272B" transform="translate(826,706)"/>
<path d="M0 0 C1.65 0 3.3 0 5 0 C5.02187378 1.01368652 5.02187378 1.01368652 5.04418945 2.04785156 C5.11875411 5.11580522 5.21538655 8.18268076 5.3125 11.25 C5.33505859 12.31347656 5.35761719 13.37695312 5.38085938 14.47265625 C5.41630859 15.49746094 5.45175781 16.52226563 5.48828125 17.578125 C5.51446533 18.52075195 5.54064941 19.46337891 5.56762695 20.43457031 C6.06833002 23.40542737 6.95505244 24.81681662 9 27 C10.93100917 27.66349794 10.93100917 27.66349794 13 27.5625 C14.0209375 27.59537109 14.0209375 27.59537109 15.0625 27.62890625 C17.16479582 27.11943915 17.16479582 27.11943915 18.70703125 25.171875 C20.64522556 20.41715059 20.57351587 15.77770545 20.6875 10.6875 C20.72166016 9.66076172 20.75582031 8.63402344 20.79101562 7.57617188 C20.87323409 5.05089037 20.94246936 2.5259446 21 0 C22.65 0 24.3 0 26 0 C26.08756305 3.70818297 26.14058015 7.41609763 26.1875 11.125 C26.21263672 12.17171875 26.23777344 13.2184375 26.26367188 14.296875 C26.33059851 21.34648069 25.69761813 25.89365185 20.9375 31.375 C16.63418993 33.75555451 12.81083427 33.76973348 8 33 C3.89441701 30.9472085 1.64130677 29.26758486 0 25 C-0.22705078 22.25097656 -0.22705078 22.25097656 -0.1953125 19.140625 C-0.18886719 18.02558594 -0.18242187 16.91054688 -0.17578125 15.76171875 C-0.15902344 14.60285156 -0.14226562 13.44398438 -0.125 12.25 C-0.11597656 11.07566406 -0.10695313 9.90132812 -0.09765625 8.69140625 C-0.07410063 5.79406464 -0.04120652 2.89713559 0 0 Z " fill="#1C282B" transform="translate(378,706)"/>
<path d="M0 0 C6.6 0 13.2 0 20 0 C20 1.65 20 3.3 20 5 C15.05 5 10.1 5 5 5 C5 7.97 5 10.94 5 14 C9.62 14 14.24 14 19 14 C19 15.32 19 16.64 19 18 C14.38 18 9.76 18 5 18 C5 21.3 5 24.6 5 28 C9.95 28 14.9 28 20 28 C20 29.65 20 31.3 20 33 C13.4 33 6.8 33 0 33 C0 22.11 0 11.22 0 0 Z " fill="#192427" transform="translate(724,706)"/>
<path d="M0 0 C-0.66 1.65 -1.32 3.3 -2 5 C-3.0209375 4.505 -3.0209375 4.505 -4.0625 4 C-7.50840238 2.82692685 -10.38397422 2.85819507 -14 3 C-14.33 4.65 -14.66 6.3 -15 8 C-14.01257813 8.47050781 -13.02515625 8.94101562 -12.0078125 9.42578125 C-10.713334 10.05425994 -9.41907447 10.68318981 -8.125 11.3125 C-7.47402344 11.62123047 -6.82304687 11.92996094 -6.15234375 12.24804688 C-2.80323602 13.88807385 -1.10994121 14.83508818 1 18 C1.46362482 22.17262337 1.4494094 24.28714371 -0.8125 27.875 C-4.58049736 31.53534029 -8.48722265 31.32271352 -13.48046875 31.30078125 C-17.24343458 30.85155897 -19.13486555 29.4127448 -22 27 C-21.34 25.68 -20.68 24.36 -20 23 C-19.45859375 23.32742188 -18.9171875 23.65484375 -18.359375 23.9921875 C-15.49280933 25.21664767 -13.3547013 25.19892146 -10.25 25.125 C-9.26515625 25.10695313 -8.2803125 25.08890625 -7.265625 25.0703125 C-6.51796875 25.04710937 -5.7703125 25.02390625 -5 25 C-5 23.35 -5 21.7 -5 20 C-5.50789063 19.74605469 -6.01578125 19.49210938 -6.5390625 19.23046875 C-7.97187964 18.51406018 -9.40277314 17.79379536 -10.83203125 17.0703125 C-12.63345495 16.18096098 -14.46955559 15.36226833 -16.3125 14.5625 C-19.50000799 12.70929768 -20.64672538 11.42298873 -22 8 C-21.92452557 4.30175314 -21.46171987 2.56945451 -19.125 -0.3125 C-13.0007737 -5.17585618 -6.35301161 -3.11167916 0 0 Z " fill="#141A1E" transform="translate(246,708)"/>
<path d="M0 0 C3.0625 1.75 3.0625 1.75 4 3.9375 C4.020625 4.535625 4.04125 5.13375 4.0625 5.75 C2.3125 6.375 2.3125 6.375 0.0625 6.75 C-0.535625 6.440625 -1.13375 6.13125 -1.75 5.8125 C-4.9417698 4.26221181 -7.43390233 4.44266687 -10.9375 4.75 C-13.72651573 5.98956255 -15.38100587 7.03450754 -17.25 9.4375 C-18.65223415 14.15410577 -18.64113949 18.20869445 -16.625 22.625 C-14.66251495 25.09627747 -13.06072909 26.60696708 -9.8515625 27.015625 C-5.44019291 26.98551326 -1.95017824 26.82105973 2.0625 24.75 C4.0625 26.75 4.0625 26.75 4.0625 29.75 C-1.59637033 32.70245408 -6.56256159 33.80584917 -12.9375 32.75 C-17.22692059 31.05451957 -20.1084896 28.81216958 -22.9375 25.1875 C-24.80549761 18.7662582 -25.18794027 12.34350574 -22.25 6.25 C-15.89110935 -0.62447637 -9.06672315 -3.43974651 0 0 Z " fill="#182023" transform="translate(813.9375,706.25)"/>
<path d="M0 0 C2.61338514 1.09685873 4.63873329 2.39232905 7 4 C6.67 5.32 6.34 6.64 6 8 C3 8 3 8 1.25 7 C-1.98111604 5.56394843 -4.50048197 5.69302473 -8 6 C-11.83949079 7.70644035 -13.42079734 9.16281459 -15 13 C-15.776322 17.49449578 -15.72583945 21.69340668 -13.125 25.5625 C-9.27647593 28.56434878 -7.13071492 28.62720686 -2.3828125 28.34375 C0.31472838 27.95459656 2.59084371 27.28488336 5 26 C5.66 27.32 6.32 28.64 7 30 C1.60180431 34.28132762 -3.27359123 34.7155754 -10 34 C-14.20563099 32.68276463 -16.690185 30.38925474 -19.4375 26.9375 C-21.81335822 22.18578357 -21.64074076 17.17280957 -21 12 C-19.11242655 6.53597161 -16.05906158 3.7570643 -11.109375 0.9140625 C-7.46096528 -0.66691504 -3.89578437 -0.56214338 0 0 Z " fill="#222F32" transform="translate(514,705)"/>
<path d="M0 0 C1.65 0 3.3 0 5 0 C14 19.06967213 14 19.06967213 14 26 C14.66 26 15.32 26 16 26 C16.19033813 24.91972534 16.19033813 24.91972534 16.38452148 23.81762695 C16.99035083 21.04417336 17.82514653 18.56350977 18.84765625 15.91796875 C19.20537109 14.98662109 19.56308594 14.05527344 19.93164062 13.09570312 C20.30482422 12.13599609 20.67800781 11.17628906 21.0625 10.1875 C21.43955078 9.20845703 21.81660156 8.22941406 22.20507812 7.22070312 C23.13315595 4.8123999 24.06490116 2.40558386 25 0 C26.98 0 28.96 0 31 0 C29.39807838 4.18836226 27.79306257 8.37553225 26.1875 12.5625 C25.73568359 13.74392578 25.28386719 14.92535156 24.81835938 16.14257812 C22.64398457 21.8086497 20.45369197 27.44862382 18 33 C16.35 33 14.7 33 13 33 C9.62046012 26.5354673 6.88521297 19.92333444 4.25 13.125 C3.63318359 11.55878906 3.63318359 11.55878906 3.00390625 9.9609375 C0 2.25656665 0 2.25656665 0 0 Z " fill="#151E22" transform="translate(603,706)"/>
<path d="M0 0 C6.6 0 13.2 0 20 0 C20 1.65 20 3.3 20 5 C15.05 5 10.1 5 5 5 C5 8.3 5 11.6 5 15 C9.62 15 14.24 15 19 15 C19 16.65 19 18.3 19 20 C14.38 20 9.76 20 5 20 C5 24.29 5 28.58 5 33 C3.35 33 1.7 33 0 33 C0 22.11 0 11.22 0 0 Z " fill="#29383D" transform="translate(136,706)"/>
<path d="M0 0 C14.19 0 28.38 0 43 0 C42.01 0.99 41.02 1.98 40 3 C38.79950593 6.10007201 38.79950593 6.10007201 38 9 C37.505 8.01 37.505 8.01 37 7 C37 8.32 37 9.64 37 11 C36.67 11.66 36.34 12.32 36 13 C37.98 13.33 39.96 13.66 42 14 C42 14.33 42 14.66 42 15 C38.93726169 15.05410136 35.87548548 15.09372225 32.8125 15.125 C31.94818359 15.14175781 31.08386719 15.15851562 30.19335938 15.17578125 C25.67791897 15.21038233 22.09918517 15.15567916 18 13 C18.33 11.35 18.66 9.7 19 8 C20.65 7.67 22.3 7.34 24 7 C24.33 5.02 24.66 3.04 25 1 C17.08 1 9.16 1 1 1 C1.09539063 3.28679688 1.19078125 5.57359375 1.2890625 7.9296875 C1.37422333 10.14037879 1.45583901 12.3511744 1.53710938 14.56201172 C1.59557259 16.10056868 1.65773085 17.6389898 1.72363281 19.17724609 C1.81762837 21.38614165 1.89840086 23.59518213 1.9765625 25.8046875 C2.00875885 26.49432587 2.0409552 27.18396423 2.0741272 27.89450073 C2.12770248 29.59566977 2.0726782 31.29953998 2 33 C1.34 33.66 0.68 34.32 0 35 C0 23.45 0 11.9 0 0 Z " fill="#293F44" transform="translate(594,570)"/>
<path d="M0 0 C8.25 0 16.5 0 25 0 C25 1.65 25 3.3 25 5 C22.03 5 19.06 5 16 5 C16 14.24 16 23.48 16 33 C14.02 33 12.04 33 10 33 C10 23.76 10 14.52 10 5 C6.7 5 3.4 5 0 5 C0 3.35 0 1.7 0 0 Z " fill="#1F2528" transform="translate(314,706)"/>
<path d="M0 0 C8.25 0 16.5 0 25 0 C25 1.65 25 3.3 25 5 C21.7 5 18.4 5 15 5 C15 14.24 15 23.48 15 33 C13.35 33 11.7 33 10 33 C10 23.76 10 14.52 10 5 C6.7 5 3.4 5 0 5 C0 3.35 0 1.7 0 0 Z " fill="#0B1417" transform="translate(439,706)"/>
<path d="M0 0 C24.75 0 49.5 0 75 0 C75 6.27 75 12.54 75 19 C66.42 19 57.84 19 49 19 C49 18.67 49 18.34 49 18 C57.25 18 65.5 18 74 18 C74 12.72 74 7.44 74 2 C50.24 2 26.48 2 2 2 C2 7.28 2 12.56 2 18 C10.58 18 19.16 18 28 18 C28 18.33 28 18.66 28 19 C18.76 19 9.52 19 0 19 C0 12.73 0 6.46 0 0 Z " fill="#11191F" transform="translate(435,568)"/>
<path d="M0 0 C3.88918917 2.05466597 6.59940692 3.67014519 8.0625 7.9375 C8.41291587 11.87967852 8.3900414 15.79538838 8.3125 19.75 C5.96849632 17.40599632 5.76838328 16.05224127 5 12.875 C4.0370679 9.59249256 3.37055875 7.82171964 1.1875 5.125 C-2.73202089 3.25044653 -6.40529894 3.02648469 -10.6875 3.75 C-14.10565845 7.16815845 -15.59937426 9.6161155 -15.98046875 14.51953125 C-15.96074235 15.86750165 -15.92527741 17.21532313 -15.875 18.5625 C-15.86146484 19.25537109 -15.84792969 19.94824219 -15.83398438 20.66210938 C-15.79888845 22.35841265 -15.74508943 24.05431136 -15.6875 25.75 C-16.6775 25.75 -17.6675 25.75 -18.6875 25.75 C-20.81645467 22.20174222 -21.17917189 18.81662487 -21.6875 14.75 C-21.90277344 14.1003125 -22.11804688 13.450625 -22.33984375 12.78125 C-22.92437775 9.3659952 -21.13302233 7.40966843 -19.2734375 4.65625 C-14.03835338 -1.63616638 -7.58740108 -2.57200037 0 0 Z " fill="#1D292D" transform="translate(549.6875,706.25)"/>
<path d="M0 0 C0.33 0 0.66 0 1 0 C1 4.62 1 9.24 1 14 C8.62096281 14.34443007 8.62096281 14.34443007 16 13 C16.04125 11.741875 16.0825 10.48375 16.125 9.1875 C16.14820313 8.47980469 16.17140625 7.77210938 16.1953125 7.04296875 C16.13254462 4.68640281 16.13254462 4.68640281 14 2 C14.99 1.67 15.98 1.34 17 1 C19.1367793 3.31484424 19.95843145 4.72683526 20.4375 7.875 C19.88939233 11.79005478 18.43242523 13.9236975 16 17 C15.34 17.33 14.68 17.66 14 18 C14.5775 18.77085937 15.155 19.54171875 15.75 20.3359375 C16.4925 21.33882812 17.235 22.34171875 18 23.375 C19.11375 24.87160156 19.11375 24.87160156 20.25 26.3984375 C22 29 22 29 22 31 C19.2421875 31.30078125 19.2421875 31.30078125 16 31 C13.8828125 28.91796875 13.8828125 28.91796875 12.125 26.1875 C11.52945312 25.29417969 10.93390625 24.40085937 10.3203125 23.48046875 C9 21 9 21 9 18 C7.33388095 17.957279 5.66617115 17.95936168 4 18 C2.33657163 19.66342837 2.63951903 21.7825709 2.4375 24.0625 C2.31181641 25.44115234 2.31181641 25.44115234 2.18359375 26.84765625 C2.12300781 27.55792969 2.06242187 28.26820313 2 29 C1.34 29 0.68 29 0 29 C0 19.43 0 9.86 0 0 Z " fill="#32474B" transform="translate(348,708)"/>
<path d="M0 0 C1.98 0 3.96 0 6 0 C6 10.89 6 21.78 6 33 C4.02 33 2.04 33 0 33 C0 22.11 0 11.22 0 0 Z " fill="#293538" transform="translate(708,706)"/>
<path d="M0 0 C0.33 0 0.66 0 1 0 C1 26.07 1 52.14 1 79 C6.61 79 12.22 79 18 79 C18 52.93 18 26.86 18 0 C18.33 0 18.66 0 19 0 C19.33 26.73 19.66 53.46 20 81 C13.4 81 6.8 81 0 81 C0 54.27 0 27.54 0 0 Z " fill="#0A0B0E" transform="translate(464,587)"/>
<path d="M0 0 C5.61 0 11.22 0 17 0 C17 0.66 17 1.32 17 2 C12.05 2.33 7.1 2.66 2 3 C2.33 6.3 2.66 9.6 3 13 C9.93 13.495 9.93 13.495 17 14 C17.33 15.32 17.66 16.64 18 18 C13.38 18 8.76 18 4 18 C4 20.97 4 23.94 4 27 C10.93 27.495 10.93 27.495 18 28 C18 28.66 18 29.32 18 30 C12.06 30 6.12 30 0 30 C0 20.1 0 10.2 0 0 Z " fill="#3D4D51" transform="translate(198,707)"/>
<path d="M0 0 C0 10.89 0 21.78 0 33 C-1.98 33 -3.96 33 -6 33 C-6 28.05 -6 23.1 -6 18 C-11.28 18 -16.56 18 -22 18 C-22 17.34 -22 16.68 -22 16 C-13.585 15.01 -13.585 15.01 -5 14 C-4.67 9.71 -4.34 5.42 -4 1 C-1 0 -1 0 0 0 Z " fill="#363E42" transform="translate(282,706)"/>
<path d="M0 0 C1.65 0 3.3 0 5 0 C7.35953094 2.35953094 7.49141413 3.77895617 8 7 C7.34 7 6.68 7 6 7 C5.67 6.34 5.34 5.68 5 5 C4.67 6.65 4.34 8.3 4 10 C4.66 10.33 5.32 10.66 6 11 C6 18.26 6 25.52 6 33 C4.02 33 2.04 33 0 33 C0 22.11 0 11.22 0 0 Z " fill="#4E5D61" transform="translate(753,706)"/>
<path d="M0 0 C6.6 0 13.2 0 20 0 C20 1.65 20 3.3 20 5 C15.05 5 10.1 5 5 5 C5 7.97 5 10.94 5 14 C4.67 14 4.34 14 4 14 C3.97311849 12.35425434 3.95365877 10.70838587 3.9375 9.0625 C3.92589844 8.14597656 3.91429687 7.22945312 3.90234375 6.28515625 C4 4 4 4 5 3 C7.35313555 2.92728259 9.70833668 2.91629132 12.0625 2.9375 C13.35285156 2.94652344 14.64320313 2.95554687 15.97265625 2.96484375 C16.97167969 2.97644531 17.97070312 2.98804688 19 3 C19 2.34 19 1.68 19 1 C13.06 1 7.12 1 1 1 C1 10.9 1 20.8 1 31 C6.94 31 12.88 31 19 31 C19 30.34 19 29.68 19 29 C14.38 29 9.76 29 5 29 C5 28.67 5 28.34 5 28 C10.28 28 15.56 28 21 28 C21 29.65 21 31.3 21 33 C14.07 33 7.14 33 0 33 C0 22.11 0 11.22 0 0 Z " fill="#111619" transform="translate(826,706)"/>
<path d="M0 0 C4 4 4 4 4.125 6.625 C4.08375 7.40875 4.0425 8.1925 4 9 C4.66 9.66 5.32 10.32 6 11 C6.22705078 13.24658203 6.22705078 13.24658203 6.1953125 16.0078125 C6.18886719 16.99394531 6.18242188 17.98007812 6.17578125 18.99609375 C6.15902344 20.02863281 6.14226563 21.06117188 6.125 22.125 C6.11597656 23.16527344 6.10695313 24.20554687 6.09765625 25.27734375 C6.07403747 27.85179092 6.04110149 30.42578212 6 33 C4.02 33 2.04 33 0 33 C0 22.11 0 11.22 0 0 Z " fill="#3B494E" transform="translate(568,706)"/>
<path d="M0 0 C5 0 5 0 6.71337891 1.40527344 C7.46240479 2.37255371 7.46240479 2.37255371 8.2265625 3.359375 C9.061875 4.41511719 9.061875 4.41511719 9.9140625 5.4921875 C10.76097656 6.60980469 10.76097656 6.60980469 11.625 7.75 C12.19734375 8.47960937 12.7696875 9.20921875 13.359375 9.9609375 C14.9235056 11.96156966 16.46794138 13.97474091 18 16 C18.57669434 16.67836914 19.15338867 17.35673828 19.74755859 18.05566406 C20.16086426 18.69729492 20.57416992 19.33892578 21 20 C20.67 20.99 20.34 21.98 20 23 C19.65743164 22.54149658 19.31486328 22.08299316 18.96191406 21.6105957 C17.39213876 19.510584 15.82107991 17.41153584 14.25 15.3125 C13.71117187 14.59126953 13.17234375 13.87003906 12.6171875 13.12695312 C8.08102969 6.17476142 8.08102969 6.17476142 2 1 C2 10.9 2 20.8 2 31 C2.66 31 3.32 31 4 31 C4 24.07 4 17.14 4 10 C4.33 10 4.66 10 5 10 C5 17.59 5 25.18 5 33 C3.35 33 1.7 33 0 33 C0 22.11 0 11.22 0 0 Z " fill="#0D1418" transform="translate(670,706)"/>
<path d="M0 0 C7.26 0 14.52 0 22 0 C22 0.66 22 1.32 22 2 C19.94921875 2.22786458 17.8984375 2.45572917 15.84765625 2.68359375 C13.98859771 2.81886614 13.98859771 2.81886614 13 4 C12.84193469 5.92478813 12.748865 7.8549921 12.68359375 9.78515625 C12.64169922 10.95498047 12.59980469 12.12480469 12.55664062 13.33007812 C12.51732422 14.56177734 12.47800781 15.79347656 12.4375 17.0625 C12.39431641 18.29806641 12.35113281 19.53363281 12.30664062 20.80664062 C12.20015802 23.87097335 12.09814576 26.93539073 12 30 C10.68 30 9.36 30 8 30 C7.67 21.09 7.34 12.18 7 3 C4.69 2.67 2.38 2.34 0 2 C0 1.34 0 0.68 0 0 Z " fill="#37494D" transform="translate(316,707)"/>
<path d="M0 0 C6.6 0 13.2 0 20 0 C20 1.65 20 3.3 20 5 C15.38 5 10.76 5 6 5 C5.67 4.34 5.34 3.68 5 3 C9.62 3 14.24 3 19 3 C19 2.34 19 1.68 19 1 C13.39 1 7.78 1 2 1 C2 10.9 2 20.8 2 31 C2.66 31 3.32 31 4 31 C4 27.37 4 23.74 4 20 C4.33 20 4.66 20 5 20 C5 24.29 5 28.58 5 33 C3.35 33 1.7 33 0 33 C0 22.11 0 11.22 0 0 Z " fill="#040B10" transform="translate(136,706)"/>
<path d="M0 0 C4.95 0 9.9 0 15 0 C14.67 0.99 14.34 1.98 14 3 C15.32 3.99 16.64 4.98 18 6 C17.67 6.66 17.34 7.32 17 8 C16.34 7.34 15.68 6.68 15 6 C12.56747339 5.53837573 12.56747339 5.53837573 9.875 5.375 C8.26625 5.25125 6.6575 5.1275 5 5 C5 8.63 5 12.26 5 16 C4.67 16 4.34 16 4 16 C3.67 12.37 3.34 8.74 3 5 C2.67 13.91 2.34 22.82 2 32 C1.34 32 0.68 32 0 32 C0 21.44 0 10.88 0 0 Z " fill="#0B1519" transform="translate(164,706)"/>
<path d="M0 0 C0.33 0.66 0.66 1.32 1 2 C0.67 2.66 0.34 3.32 0 4 C-0.11767472 5.4494793 -0.17689268 6.90393996 -0.20532227 8.35791016 C-0.22526749 9.25869293 -0.24521271 10.15947571 -0.26576233 11.08755493 C-0.29083107 12.54855118 -0.29083107 12.54855118 -0.31640625 14.0390625 C-0.33718735 15.03505463 -0.35796844 16.03104675 -0.37937927 17.05722046 C-0.44489042 20.24640854 -0.50376704 23.43568058 -0.5625 26.625 C-0.60568373 28.78386293 -0.64929797 30.9427173 -0.69335938 33.1015625 C-0.80138549 38.40095678 -0.9004474 43.70041257 -1 49 C-7.6 49 -14.2 49 -21 49 C-20.67 48.01 -20.34 47.02 -20 46 C-14.39 46.33 -8.78 46.66 -3 47 C-3.03480469 44.19371094 -3.06960938 41.38742187 -3.10546875 38.49609375 C-3.12890028 35.76229875 -3.14709636 33.02851516 -3.16479492 30.29467773 C-3.17983246 28.40237375 -3.20026785 26.51010434 -3.22631836 24.61791992 C-3.26292399 21.88972414 -3.2797769 19.16199129 -3.29296875 16.43359375 C-3.30845261 15.59477158 -3.32393646 14.7559494 -3.33988953 13.89170837 C-3.34141607 8.50011426 -2.45107706 4.81451469 0 0 Z " fill="#343A3C" transform="translate(882,619)"/>
<path d="M0 0 C7.51953125 -0.390625 7.51953125 -0.390625 10 0 C11.83203125 1.8515625 11.83203125 1.8515625 13 4 C12.875 6.625 12.875 6.625 12 9 C7.7975546 11.80163026 4.99895065 11.14489712 0 11 C0 7.37 0 3.74 0 0 Z " fill="#F1F2F0" transform="translate(169,711)"/>
<path d="M0 0 C0.99 0 1.98 0 3 0 C3.33 10.56 3.66 21.12 4 32 C-1 31 -1 31 -3 29 C-3.71408334 27.01643517 -4.38617742 25.01684563 -5 23 C-3.02 23 -1.04 23 1 23 C0.67 22.34 0.34 21.68 0 21 C-0.08400529 19.40552536 -0.10727467 17.80759455 -0.09765625 16.2109375 C-0.09282227 14.79941406 -0.09282227 14.79941406 -0.08789062 13.359375 C-0.07951172 12.37453125 -0.07113281 11.3896875 -0.0625 10.375 C-0.05798828 9.38242187 -0.05347656 8.38984375 -0.04882812 7.3671875 C-0.03702145 4.9113984 -0.020554 2.45572896 0 0 Z " fill="#2E4347" transform="translate(592,707)"/>
<path d="M0 0 C1.423125 -0.061875 2.84625 -0.12375 4.3125 -0.1875 C5.51326172 -0.23970703 5.51326172 -0.23970703 6.73828125 -0.29296875 C9 0 9 0 10.80078125 1.3203125 C12 3 12 3 11.875 6.0625 C11 9 11 9 8 11 C5.95703125 11.1953125 5.95703125 11.1953125 3.8125 11.125 C1.9253125 11.063125 1.9253125 11.063125 0 11 C0 7.37 0 3.74 0 0 Z " fill="#F8F9F7" transform="translate(352,711)"/>
<path d="M0 0 C0.845625 -0.00773438 1.69125 -0.01546875 2.5625 -0.0234375 C5.43365432 0.4458858 6.83441027 1.48010899 9 3.375 C8.01 3.87 8.01 3.87 7 4.375 C6.34 4.045 5.68 3.715 5 3.375 C3.50243129 3.28000497 2.00057068 3.24512802 0.5 3.25 C-0.2940625 3.24742187 -1.088125 3.24484375 -1.90625 3.2421875 C-4.05918534 3.24222004 -4.05918534 3.24222004 -6 4.375 C-6.33425735 6.74874861 -6.33425735 6.74874861 -6 9.375 C-3.24107385 11.82879146 -0.19224507 13.35809526 3.125 14.9375 C5.9091474 16.26348118 7.8116497 17.1866497 10 19.375 C10.125 22.5 10.125 22.5 10 25.375 C8.27465721 23.73181639 6.96591738 22.31705954 5.75 20.25 C4.03690211 18.01529303 4.03690211 18.01529303 0.625 17.9375 C-3.85476046 17.24236476 -5.14659008 15.7990919 -8 12.375 C-10 9.375 -10 9.375 -9.875 6.375 C-8.3574329 1.1719128 -5.18881526 -0.04745868 0 0 Z " fill="#314549" transform="translate(423,706.625)"/>
<path d="M0 0 C3.0625 1.75 3.0625 1.75 4 3.9375 C4.020625 4.535625 4.04125 5.13375 4.0625 5.75 C2.3125 6.375 2.3125 6.375 0.0625 6.75 C-0.535625 6.440625 -1.13375 6.13125 -1.75 5.8125 C-4.9417698 4.26221181 -7.43390233 4.44266687 -10.9375 4.75 C-14.78194948 6.45864421 -16.35419083 7.91167473 -17.9375 11.75 C-18.38561137 14.10564596 -18.38561137 14.10564596 -18.5625 16.5 C-18.63726563 17.29921875 -18.71203125 18.0984375 -18.7890625 18.921875 C-18.83804688 19.52515625 -18.88703125 20.1284375 -18.9375 20.75 C-19.2675 20.75 -19.5975 20.75 -19.9375 20.75 C-20.62587568 11.07449735 -20.62587568 11.07449735 -18.0625 7.125 C-17.36125 6.34125 -16.66 5.5575 -15.9375 4.75 C-15.2775 4.75 -14.6175 4.75 -13.9375 4.75 C-14.2675 3.1 -14.5975 1.45 -14.9375 -0.25 C-9.84557803 -1.94730732 -4.99409383 -1.89466652 0 0 Z " fill="#212E32" transform="translate(813.9375,706.25)"/>
<path d="M0 0 C1.65 0 3.3 0 5 0 C5 10.23 5 20.46 5 31 C4.67 31 4.34 31 4 31 C4 21.1 4 11.2 4 1 C3.01 1 2.02 1 1 1 C1.33 8.59 1.66 16.18 2 24 C0.35 24.33 -1.3 24.66 -3 25 C-3 25.99 -3 26.98 -3 28 C-4.99020654 25.59223944 -6.96512077 23.17237722 -8.9375 20.75 C-9.50146484 20.06808594 -10.06542969 19.38617187 -10.64648438 18.68359375 C-11.18466797 18.01972656 -11.72285156 17.35585938 -12.27734375 16.671875 C-12.77484131 16.0644043 -13.27233887 15.45693359 -13.78491211 14.83105469 C-15.07718652 12.88368517 -15.57459173 11.28353869 -16 9 C-12.31934707 11.45376862 -10.8079865 14.203855 -8.5 17.90625 C-7.00720341 20.25038421 -7.00720341 20.25038421 -4 22 C-5.32 20.02 -6.64 18.04 -8 16 C-7.67 15.34 -7.34 14.68 -7 14 C-5.02 16.64 -3.04 19.28 -1 22 C-0.67 14.74 -0.34 7.48 0 0 Z " fill="#0A0E11" transform="translate(591,706)"/>
<path d="M0 0 C2.02357943 1.91707525 3.76822748 3.94851248 5.5 6.125 C7.74343251 9.19691068 7.74343251 9.19691068 11 10 C14.84283684 10.13973952 18.3171369 10.17851619 22 9 C22 8.01 22 7.02 22 6 C23.32 6.66 24.64 7.32 26 8 C25.05796011 10.5691997 24.34534325 11.78416047 22 13.25 C16.25645405 14.68588649 10.41167991 15.09216146 5 12.375 C1.59248142 9.67738113 0.79118008 8.21962711 0 4 C0 2.68 0 1.36 0 0 Z " fill="#11181B" transform="translate(495,725)"/>
<path d="M0 0 C0.66 0 1.32 0 2 0 C1.56764546 7.6015789 -0.55621517 13.60615026 -3.5625 20.5625 C-3.98724609 21.57119141 -4.41199219 22.57988281 -4.84960938 23.61914062 C-5.88932257 26.08407866 -6.93954792 28.54393036 -8 31 C-9.65 31 -11.3 31 -13 31 C-12.731875 30.43796875 -12.46375 29.8759375 -12.1875 29.296875 C-7.71311749 19.70050198 -3.88234518 9.84694706 0 0 Z " fill="#283539" transform="translate(629,708)"/>
<path d="M0 0 C-1.05875074 3.40312738 -2.00902154 6.01353231 -4 9 C-4.14221065 11.60245498 -4.18802932 14.09117684 -4.125 16.6875 C-4.11146484 17.7403418 -4.11146484 17.7403418 -4.09765625 18.81445312 C-4.07413704 20.54311525 -4.03826713 22.27160145 -4 24 C-4.99 24 -5.98 24 -7 24 C-9.12895467 20.45174222 -9.49167189 17.06662487 -10 13 C-10.2475 12.2575 -10.495 11.515 -10.75 10.75 C-10.8325 10.1725 -10.915 9.595 -11 9 C-9.8125 7.5625 -9.8125 7.5625 -8 6 C-7.319375 5.13375 -6.63875 4.2675 -5.9375 3.375 C-3.18421053 0 -3.18421053 0 0 0 Z " fill="#2A3A3E" transform="translate(538,708)"/>
<path d="M0 0 C2.18994248 3.28491373 2.35277339 4.83095639 2.625 8.6875 C2.69976562 9.68136719 2.77453125 10.67523437 2.8515625 11.69921875 C2.90054688 12.45847656 2.94953125 13.21773437 3 14 C5.31 14.33 7.62 14.66 10 15 C10.33 15.99 10.66 16.98 11 18 C8 18 5 18 2 18 C2.66 18.33 3.32 18.66 4 19 C4 22.96 4 26.92 4 31 C2.02 31 0.04 31 -2 31 C-1.34 30.67 -0.68 30.34 0 30 C0 20.1 0 10.2 0 0 Z " fill="#34484C" transform="translate(166,708)"/>
<path d="M0 0 C2.41101463 0.91618556 4.67532866 1.89860232 7 3 C7.71542969 3.31453125 8.43085938 3.6290625 9.16796875 3.953125 C10.22951172 4.44039062 10.22951172 4.44039062 11.3125 4.9375 C11.96863281 5.23527344 12.62476563 5.53304687 13.30078125 5.83984375 C15.44888993 7.30648347 16.10661715 8.57641267 17 11 C16.875 14.125 16.875 14.125 16 17 C13.9375 18.375 13.9375 18.375 12 19 C12 16.36 12 13.72 12 11 C11.030625 10.54625 10.06125 10.0925 9.0625 9.625 C6 8 6 8 5 6 C4.01 5.505 3.02 5.01 2 4.5 C-1 3 -1 3 -2 1 C-1.34 0.67 -0.68 0.34 0 0 Z " fill="#202E32" transform="translate(229,717)"/>
<path d="M0 0 C3.74392306 1.87196153 4.60045413 2.40068119 6.75 5.625 C7.39195312 6.57246094 7.39195312 6.57246094 8.046875 7.5390625 C8.51867187 8.26222656 8.51867187 8.26222656 9 9 C8.34 9.66 7.68 10.32 7 11 C5.68 10.34 4.36 9.68 3 9 C2.67 15.93 2.34 22.86 2 30 C1.34 30 0.68 30 0 30 C0 20.1 0 10.2 0 0 Z " fill="#314449" transform="translate(672,707)"/>
<path d="M0 0 C0.99 0.66 1.98 1.32 3 2 C2.505 2.639375 2.01 3.27875 1.5 3.9375 C-0.52981195 8.08169939 -0.81114386 11.46713725 0 16 C1.26024561 19.11878965 2.1728493 19.79482245 5 22 C9.55586086 22.73996466 13.631046 22.456318 18 21 C18 21.66 18 22.32 18 23 C14.34387956 25.33991708 11.26792624 25.37437949 7 25 C2.30758698 22.9266082 -0.71319554 19.57360892 -3 15 C-2.67 17.31 -2.34 19.62 -2 22 C-4.5795165 19.5326364 -5.92403242 18.14481382 -6.16796875 14.46875 C-6.17441406 13.4890625 -6.18085938 12.509375 -6.1875 11.5 C-6.20167969 10.5203125 -6.21585937 9.540625 -6.23046875 8.53125 C-6 6 -6 6 -4 4 C-4 6.31 -4 8.62 -4 11 C-1.58749273 5.6400004 -1.58749273 5.6400004 0 0 Z " fill="#10171A" transform="translate(499,711)"/>
<path d="M0 0 C0.66 0 1.32 0 2 0 C2 9.9 2 19.8 2 30 C1.34 30 0.68 30 0 30 C-0.495 23.565 -0.495 23.565 -1 17 C-6.61 16.67 -12.22 16.34 -18 16 C-18 15.67 -18 15.34 -18 15 C-9.585 14.01 -9.585 14.01 -1 13 C-0.67 8.71 -0.34 4.42 0 0 Z " fill="#36494C" transform="translate(278,707)"/>
<path d="M0 0 C4.62 0 9.24 0 14 0 C14 0.33 14 0.66 14 1 C9.71 1 5.42 1 1 1 C1 10.9 1 20.8 1 31 C1.66 31 2.32 31 3 31 C3 27.7 3 24.4 3 21 C4.32 20.34 5.64 19.68 7 19 C7.99 19.66 8.98 20.32 10 21 C8.35 21 6.7 21 5 21 C5 24.96 5 28.92 5 33 C3.35 33 1.7 33 0 33 C0 22.11 0 11.22 0 0 Z " fill="#090E10" transform="translate(347,706)"/>
<path d="M0 0 C3.83968859 1.4564336 5.31006462 3.28214217 7 7 C7.5 10 7.5 10 7 13 C4.5 15.875 4.5 15.875 2 18 C1.34 17.34 0.68 16.68 0 16 C0 15.34 0 14.68 0 14 C0.66 14 1.32 14 2 14 C2.061875 12.72125 2.12375 11.4425 2.1875 10.125 C2.22230469 9.40570312 2.25710937 8.68640625 2.29296875 7.9453125 C2.19628906 7.30335938 2.09960938 6.66140625 2 6 C-1.03525486 3.97649676 -2.19426202 3.67875982 -5.6875 3.375 C-6.49574219 3.30023437 -7.30398437 3.22546875 -8.13671875 3.1484375 C-8.75160156 3.09945312 -9.36648437 3.05046875 -10 3 C-10 2.67 -10 2.34 -10 2 C-9.04287109 1.90912109 -9.04287109 1.90912109 -8.06640625 1.81640625 C-6.82697266 1.69072266 -6.82697266 1.69072266 -5.5625 1.5625 C-4.73878906 1.48128906 -3.91507813 1.40007813 -3.06640625 1.31640625 C-1.01337975 1.21069185 -1.01337975 1.21069185 0 0 Z " fill="#27373B" transform="translate(179,706)"/>
<path d="M0 0 C-0.66 1.65 -1.32 3.3 -2 5 C-2.39316406 4.51402344 -2.78632813 4.02804687 -3.19140625 3.52734375 C-6.1137328 1.05946107 -8.9292031 1.53747657 -12.61328125 1.62890625 C-15.22327191 1.84053031 -15.22327191 1.84053031 -17.625 4 C-18.07875 4.66 -18.5325 5.32 -19 6 C-20 3 -20 3 -18.75 0.375 C-14.06104595 -5.98858049 -5.92756119 -2.90329528 0 0 Z " fill="#1D292C" transform="translate(246,708)"/>
<path d="M0 0 C1.62490954 -0.02698189 3.24994633 -0.04638757 4.875 -0.0625 C5.77992188 -0.07410156 6.68484375 -0.08570313 7.6171875 -0.09765625 C10 0 10 0 12 1 C12.33 10.9 12.66 20.8 13 31 C11.35 31 9.7 31 8 31 C8.66 30.67 9.32 30.34 10 30 C10 20.76 10 11.52 10 2 C6.7 1.67 3.4 1.34 0 1 C0 0.67 0 0.34 0 0 Z " fill="#2F4044" transform="translate(441,708)"/>
<path d="M0 0 C2.87670248 0.50157889 4.95099852 1.59382801 7.06640625 3.62109375 C9.51857085 7.19716712 10.28270397 11.22155302 11.28515625 15.3984375 C11.28515625 12.0984375 11.28515625 8.7984375 11.28515625 5.3984375 C14.0632502 8.17653145 13.58471328 9.96598953 13.59765625 13.8359375 C13.61441406 14.98964844 13.63117187 16.14335938 13.6484375 17.33203125 C13.28515625 20.3984375 13.28515625 20.3984375 11.765625 22.30859375 C11.27707031 22.66824219 10.78851562 23.02789063 10.28515625 23.3984375 C10.28515625 21.7484375 10.28515625 20.0984375 10.28515625 18.3984375 C9.62515625 19.3884375 8.96515625 20.3784375 8.28515625 21.3984375 C7.62515625 21.0684375 6.96515625 20.7384375 6.28515625 20.3984375 C6.61515625 19.7384375 6.94515625 19.0784375 7.28515625 18.3984375 C7.81633877 13.47846822 8.03621178 9.62516153 5.41015625 5.3359375 C1.72332787 1.97441751 -0.7956008 2.22880843 -5.71484375 2.3984375 C-8.0252129 2.82698745 -8.0252129 2.82698745 -9.71484375 3.3984375 C-6.74419273 -0.14748245 -4.45009735 -0.1881342 0 0 Z " fill="#0B1113" transform="translate(545.71484375,708.6015625)"/>
<path d="M0 0 C5.54800174 1.05676224 7.6907903 3.60347615 10.8984375 7.9296875 C12 10 12 10 12 14 C12.99 14.33 13.98 14.66 15 15 C15.6875 17.0625 15.6875 17.0625 16 19 C11.10360066 16.08513471 7.99593924 12.9374797 4.625 8.375 C4.17511719 7.78976562 3.72523438 7.20453125 3.26171875 6.6015625 C0 2.2790416 0 2.2790416 0 0 Z " fill="#2B3D42" transform="translate(677,716)"/>
<path d="M0 0 C1.65 0 3.3 0 5 0 C5.66 1.32 6.32 2.64 7 4 C4.525 3.01 4.525 3.01 2 2 C2 11.9 2 21.8 2 32 C1.34 32 0.68 32 0 32 C0 21.44 0 10.88 0 0 Z " fill="#0A151B" transform="translate(753,706)"/>
<path d="M0 0 C2.7488257 1.31359812 5.23046982 2.7925498 7.75 4.5 C15.87385295 9.55880953 24.66315413 9.50168519 34 10 C34.33 9.01 34.66 8.02 35 7 C35.495 7.99 35.495 7.99 36 9 C38.31 8.34 40.62 7.68 43 7 C43 7.66 43 8.32 43 9 C32.55711464 13.60715531 21.58384441 12.78997081 11 9 C6.45291999 6.5880706 2.87290932 4.30936398 0 0 Z " fill="#151B1E" transform="translate(514,658)"/>
<path d="M0 0 C3.20196188 0 4.33139113 0.34504876 7 2 C8.703125 3.875 8.703125 3.875 10.25 6 C10.77078125 6.70125 11.2915625 7.4025 11.828125 8.125 C13 10 13 10 13 12 C10.2421875 12.3046875 10.2421875 12.3046875 7 12 C4.8828125 9.8828125 4.8828125 9.8828125 3.125 7.125 C2.52945312 6.22007812 1.93390625 5.31515625 1.3203125 4.3828125 C0 2 0 2 0 0 Z " fill="#12191C" transform="translate(357,727)"/>
<path d="M0 0 C8.25 0 16.5 0 25 0 C25 1.65 25 3.3 25 5 C21.7 5 18.4 5 15 5 C15.33 4.34 15.66 3.68 16 3 C18.64 3 21.28 3 24 3 C24 2.34 24 1.68 24 1 C16.74 1 9.48 1 2 1 C2 1.66 2 2.32 2 3 C4.64 3 7.28 3 10 3 C9.67 3.66 9.34 4.32 9 5 C6.03 5 3.06 5 0 5 C0 3.35 0 1.7 0 0 Z " fill="#050C10" transform="translate(314,706)"/>
<path d="M0 0 C0.33 0 0.66 0 1 0 C1.12117187 0.69867187 1.24234375 1.39734375 1.3671875 2.1171875 C1.53476562 3.02726563 1.70234375 3.93734375 1.875 4.875 C2.03742187 5.77992188 2.19984375 6.68484375 2.3671875 7.6171875 C2.83044703 10.16505988 2.83044703 10.16505988 5 12 C5.66 11.34 6.32 10.68 7 10 C7.474375 10.474375 7.94875 10.94875 8.4375 11.4375 C12.11644797 13.68076096 15.7621112 13.73739578 20 14 C18 16 18 16 15.0625 16.125 C14.051875 16.08375 13.04125 16.0425 12 16 C11.01 16 10.02 16 9 16 C9.66 16.66 10.32 17.32 11 18 C7.20418201 17.88835829 5.29145843 16.65809541 2.75 14 C-0.45628659 10.02717189 -1.24949149 6.05491462 -1 1 C-0.67 0.67 -0.34 0.34 0 0 Z " fill="#121A1E" transform="translate(528,720)"/>
<path d="M0 0 C0.66 0.33 1.32 0.66 2 1 C2.33 0.67 2.66 0.34 3 0 C5.96404505 2.80804268 8.44499019 5.18315774 10 9 C7.525 8.01 7.525 8.01 5 7 C5 7.99 5 8.98 5 10 C4.01 8.68 3.02 7.36 2 6 C1.67 12.6 1.34 19.2 1 26 C0.67 26 0.34 26 0 26 C-0.19625099 22.04204914 -0.38051982 18.08363065 -0.5625 14.125 C-0.61857422 12.99707031 -0.67464844 11.86914062 -0.73242188 10.70703125 C-0.80493164 9.09248047 -0.80493164 9.09248047 -0.87890625 7.4453125 C-0.9260376 6.45031738 -0.97316895 5.45532227 -1.02172852 4.43017578 C-1 2 -1 2 0 0 Z " fill="#121B1D" transform="translate(757,710)"/>
<path d="M0 0 C0.33 0.66 0.66 1.32 1 2 C-0.05551177 4.37932402 -1.15901203 6.64243873 -2.375 8.9375 C-4.95773773 13.84758462 -4.95773773 13.84758462 -7 19 C-7.66 19 -8.32 19 -9 19 C-8.67 19.99 -8.34 20.98 -8 22 C-8.9375 24.6875 -8.9375 24.6875 -10 27 C-10.66 27 -11.32 27 -12 27 C-12.12375 27.94875 -12.2475 28.8975 -12.375 29.875 C-13 33 -13 33 -15 35 C-14.45418409 29.59082443 -13.11398224 25.2495255 -10.875 20.3125 C-10.41565063 19.27899414 -10.41565063 19.27899414 -9.94702148 18.22460938 C-7.06660637 11.88138812 -3.68499805 5.91391784 0 0 Z " fill="#F64C09" transform="translate(393,283)"/>
<path d="M0 0 C3.21328529 0.85687608 5.51447031 1.55998872 8 3.8125 C9 6 9 6 8.375 8.625 C7 11 7 11 4 13 C-0.5597248 13.33775739 -3.8782921 12.99840383 -8 11 C-5.96731398 13.16343011 -5.96731398 13.16343011 -3 15 C-5.875 14.6875 -5.875 14.6875 -9 14 C-9.66 13.01 -10.32 12.02 -11 11 C-10.34 10.01 -9.68 9.02 -9 8 C-8.360625 8.33 -7.72125 8.66 -7.0625 9 C-2.98763159 10.33056928 0.75190425 10.16659199 5 10 C5.33 8.35 5.66 6.7 6 5 C5.01 4.360625 4.02 3.72125 3 3.0625 C2.01 2.381875 1.02 1.70125 0 1 C0 0.67 0 0.34 0 0 Z " fill="#151B1E" transform="translate(422,723)"/>
<path d="M0 0 C7.59 0 15.18 0 23 0 C23 0.66 23 1.32 23 2 C21.329375 2.2165625 21.329375 2.2165625 19.625 2.4375 C16.17857953 2.78372035 16.17857953 2.78372035 14 4 C14 11.59 14 19.18 14 27 C13.67 27 13.34 27 13 27 C13 18.75 13 10.5 13 2 C8.71 2 4.42 2 0 2 C0 1.34 0 0.68 0 0 Z " fill="#192529" transform="translate(440,707)"/>
<path d="M0 0 C0.99 0 1.98 0 3 0 C3.66 2.31 4.32 4.62 5 7 C11.6 7 18.2 7 25 7 C25.33 6.34 25.66 5.68 26 5 C26.66 6.32 27.32 7.64 28 9 C24.27164299 9.20382103 20.54471871 9.32779471 16.8125 9.4375 C15.75740234 9.49615234 14.70230469 9.55480469 13.61523438 9.61523438 C5.95728979 9.78433725 5.95728979 9.78433725 3.14599609 7.48095703 C1.32964455 5.00982197 0 3.11471677 0 0 Z " fill="#F55D1F" transform="translate(417,659)"/>
<path d="M0 0 C-2.28929053 1.17154293 -4.58118362 2.33738074 -6.875 3.5 C-7.52597656 3.83386719 -8.17695313 4.16773438 -8.84765625 4.51171875 C-13.7734375 7 -13.7734375 7 -16 7 C-16.2475 7.804375 -16.495 8.60875 -16.75 9.4375 C-17.1625 10.283125 -17.575 11.12875 -18 12 C-19.32488113 12.36548445 -20.66018514 12.6937566 -22 13 C-23.68662458 14.64646685 -25.35511706 16.31183067 -27 18 C-27.66 18 -28.32 18 -29 18 C-27.25 14.125 -27.25 14.125 -25 13 C-24.67 12.01 -24.34 11.02 -24 10 C-22.49707031 8.86499023 -22.49707031 8.86499023 -20.578125 7.80859375 C-19.88203125 7.42123047 -19.1859375 7.03386719 -18.46875 6.63476562 C-17.7365625 6.23966797 -17.004375 5.84457031 -16.25 5.4375 C-15.53328125 5.03853516 -14.8165625 4.63957031 -14.078125 4.22851562 C-3.98492743 -1.32830914 -3.98492743 -1.32830914 0 0 Z " fill="#F75208" transform="translate(474,254)"/>
<path d="M0 0 C5.28 0 10.56 0 16 0 C16 1.65 16 3.3 16 5 C9.07 5 2.14 5 -5 5 C-5 4.34 -5 3.68 -5 3 C1.27 3 7.54 3 14 3 C14 2.34 14 1.68 14 1 C9.38 1 4.76 1 0 1 C0 0.67 0 0.34 0 0 Z " fill="#222629" transform="translate(645,734)"/>
<path d="M0 0 C0.33 0 0.66 0 1 0 C1 1.65 1 3.3 1 5 C-3.95 5 -8.9 5 -14 5 C-14 8.3 -14 11.6 -14 15 C-9.38 15 -4.76 15 0 15 C0 15.66 0 16.32 0 17 C-4.95 17 -9.9 17 -15 17 C-16.49640828 12.51077515 -15.54749697 8.68414076 -15 4 C-10.05 4 -5.1 4 0 4 C0 2.68 0 1.36 0 0 Z " fill="#475559" transform="translate(659,720)"/>
<path d="M0 0 C5.94 0 11.88 0 18 0 C18 0.66 18 1.32 18 2 C13.38 2.33 8.76 2.66 4 3 C4 6.63 4 10.26 4 14 C3.01 14 2.02 14 1 14 C0.67 9.38 0.34 4.76 0 0 Z " fill="#2C4045" transform="translate(827,707)"/>
<path d="M0 0 C1.35439668 2.70879335 1.06501451 5.00933268 1 8 C0.34 8 -0.32 8 -1 8 C-0.67 10.97 -0.34 13.94 0 17 C0.33 17 0.66 17 1 17 C1 21.29 1 25.58 1 30 C-3.20462706 25.79537294 -3.17448983 20.22748901 -3.3125 14.5625 C-3.24204625 9.01586805 -2.35208355 4.99817754 0 0 Z M1 6 C3 7 3 7 3 7 Z " fill="#1D272B" transform="translate(776,617)"/>
<path d="M0 0 C1.98 0 3.96 0 6 0 C4.68 2.97 3.36 5.94 2 9 C1.67 8.34 1.34 7.68 1 7 C1.9375 4.375 1.9375 4.375 3 2 C2.34 2 1.68 2 1 2 C0.608125 3.19625 0.21625 4.3925 -0.1875 5.625 C-0.78885552 7.41761216 -1.39349037 9.20912511 -2 11 C-2.40992188 12.21429687 -2.81984375 13.42859375 -3.2421875 14.6796875 C-3.68155434 15.95337959 -4.12165781 17.2268178 -4.5625 18.5 C-4.97628906 19.7065625 -5.39007812 20.913125 -5.81640625 22.15625 C-7 25 -7 25 -9 26 C-8.37658609 22.4617797 -7.44678155 19.26706972 -6.15234375 15.91796875 C-5.79462891 14.98662109 -5.43691406 14.05527344 -5.06835938 13.09570312 C-4.69517578 12.13599609 -4.32199219 11.17628906 -3.9375 10.1875 C-3.56044922 9.20845703 -3.18339844 8.22941406 -2.79492188 7.22070312 C-1.86684405 4.8123999 -0.93509884 2.40558386 0 0 Z " fill="#0F1417" transform="translate(628,706)"/>
<path d="M0 0 C5.61 0 11.22 0 17 0 C17 0.66 17 1.32 17 2 C12.05 2.33 7.1 2.66 2 3 C2 6.3 2 9.6 2 13 C1.34 13 0.68 13 0 13 C0 8.71 0 4.42 0 0 Z " fill="#2F4347" transform="translate(198,707)"/>
<path d="M0 0 C0.33 0 0.66 0 1 0 C1.66 3.96 2.32 7.92 3 12 C9.93 12.495 9.93 12.495 17 13 C17 13.66 17 14.32 17 15 C11.39 15 5.78 15 0 15 C0 10.05 0 5.1 0 0 Z " fill="#344A4E" transform="translate(828,722)"/>
<path d="M0 0 C0.66 0 1.32 0 2 0 C2.33 2.64 2.66 5.28 3 8 C7.95 8 12.9 8 18 8 C18 8.66 18 9.32 18 10 C12.06 10 6.12 10 0 10 C0 6.7 0 3.4 0 0 Z " fill="#34494D" transform="translate(725,727)"/>
<path d="M0 0 C0.33 0 0.66 0 1 0 C1.25 5.625 1.25 5.625 -1 9 C-2.97119141 9.34057617 -2.97119141 9.34057617 -5.3515625 9.29296875 C-6.20234375 9.28330078 -7.053125 9.27363281 -7.9296875 9.26367188 C-8.81914062 9.23853516 -9.70859375 9.21339844 -10.625 9.1875 C-11.5221875 9.17396484 -12.419375 9.16042969 -13.34375 9.14648438 C-15.56309789 9.11106925 -17.78125188 9.06168461 -20 9 C-20.33 8.34 -20.66 7.68 -21 7 C-15.72 7 -10.44 7 -5 7 C-5 5.35 -5 3.7 -5 2 C-3 4 -3 4 -3 7 C-2.34 7 -1.68 7 -1 7 C-0.67 4.69 -0.34 2.38 0 0 Z " fill="#F55003" transform="translate(367,462)"/>
<path d="M0 0 C0.33 0 0.66 0 1 0 C1 9.9 1 19.8 1 30 C1.66 30 2.32 30 3 30 C3 26.37 3 22.74 3 19 C3.33 19 3.66 19 4 19 C4 23.29 4 27.58 4 32 C2.35 32 0.7 32 -1 32 C-0.67 21.44 -0.34 10.88 0 0 Z " fill="#101B1F" transform="translate(137,707)"/>
<path d="M0 0 C5.61 0 11.22 0 17 0 C17 0.66 17 1.32 17 2 C10.565 2.495 10.565 2.495 4 3 C3.67 6.63 3.34 10.26 3 14 C2.67 14 2.34 14 2 14 C2 10.7 2 7.4 2 4 C1.34 4 0.68 4 0 4 C0 2.68 0 1.36 0 0 Z " fill="#213236" transform="translate(138,707)"/>
<path d="M0 0 C1.0326802 2.78823655 1.04509293 3.8677274 0.0625 6.75 C-0.288125 7.4925 -0.63875 8.235 -1 9 C-2.32 9 -3.64 9 -5 9 C-5.99 12.3 -6.98 15.6 -8 19 C-8.33 19 -8.66 19 -9 19 C-8.71251273 11.09410008 -5.58203973 5.58203973 0 0 Z " fill="#1B272A" transform="translate(699,605)"/>
<path d="M0 0 C0.99 0.33 1.98 0.66 3 1 C-0.95856384 5.82523166 -4.59068308 9.75440985 -10 13 C-11.34175973 13.98866506 -12.67896002 14.9838154 -14 16 C-12.34136495 11.67495164 -9.128959 8.90581175 -5.875 5.75 C-5.31167969 5.19570313 -4.74835938 4.64140625 -4.16796875 4.0703125 C-2.78313972 2.70895515 -1.39216796 1.35385141 0 0 Z " fill="#F54D02" transform="translate(420,251)"/>
<path d="M0 0 C1.65 0 3.3 0 5 0 C4.01 0.495 4.01 0.495 3 1 C3 1.66 3 2.32 3 3 C5.97 3 8.94 3 12 3 C12 3.33 12 3.66 12 4 C11.32453125 4.09796875 10.6490625 4.1959375 9.953125 4.296875 C3.02142581 5.36108138 3.02142581 5.36108138 -2 10 C-3.14814997 12.29629994 -3.30769809 14.07698086 -3.5625 16.625 C-3.64628906 17.44226563 -3.73007812 18.25953125 -3.81640625 19.1015625 C-3.87699219 19.72804688 -3.93757812 20.35453125 -4 21 C-4.33 21 -4.66 21 -5 21 C-5.68837568 11.32449735 -5.68837568 11.32449735 -3.125 7.375 C-2.42375 6.59125 -1.7225 5.8075 -1 5 C-0.34 5 0.32 5 1 5 C0.67 3.35 0.34 1.7 0 0 Z " fill="#0F1417" transform="translate(799,706)"/>
<path d="M0 0 C0.33 0.66 0.66 1.32 1 2 C2.32 1.67 3.64 1.34 5 1 C3.7677465 5.07591543 2.19619973 8.3714961 0 12 C-0.144375 12.70125 -0.28875 13.4025 -0.4375 14.125 C-1.2229901 16.74330033 -2.75974017 17.55467108 -5 19 C-4.70351563 18.32582031 -4.40703125 17.65164063 -4.1015625 16.95703125 C-2.83916997 13.56826833 -2.10308784 10.22865449 -1.375 6.6875 C-1.11460937 5.43324219 -0.85421875 4.17898438 -0.5859375 2.88671875 C-0.39257812 1.93410156 -0.19921875 0.98148438 0 0 Z " fill="#293F44" transform="translate(561,629)"/>
<path d="M0 0 C0.33 1.32 0.66 2.64 1 4 C-2.469847 6.8733117 -5.3765557 8.94042406 -9.98046875 9.109375 C-12.68354978 8.84361283 -15.33003645 8.49571015 -18 8 C-18 7.67 -18 7.34 -18 7 C-17.27554688 6.90203125 -16.55109375 6.8040625 -15.8046875 6.703125 C-9.40571943 5.71341794 -4.6892729 4.6892729 0 0 Z " fill="#1A2428" transform="translate(555,646)"/>
<path d="M0 0 C0.66 0.33 1.32 0.66 2 1 C0.625 3 0.625 3 -1 5 C-1.66 5 -2.32 5 -3 5 C-3.50339847 11.24208718 -3.50339847 11.24208718 -1.25 16.9375 C0.79360945 18.81080866 2.43459432 19.99216205 5 21 C2.8125 21.375 2.8125 21.375 0 21 C-3.19048978 18.30580863 -4.67126971 16.64891114 -5.48828125 12.55078125 C-5.66979133 9.08134565 -5.79519162 6.231176 -3.8671875 3.24609375 C-2.5 1.875 -2.5 1.875 0 0 Z " fill="#F53705" transform="translate(250,359)"/>
<path d="M0 0 C0.33 0 0.66 0 1 0 C1.33 10.56 1.66 21.12 2 32 C0.35 31.67 -1.3 31.34 -3 31 C-3 30.01 -3 29.02 -3 28 C-1.515 28.99 -1.515 28.99 0 30 C0 20.1 0 10.2 0 0 Z " fill="#16272C" transform="translate(594,707)"/>
<path d="M0 0 C7.03846154 7.03846154 7.03846154 7.03846154 9 12 C9.97236487 13.6829392 10.96564444 15.35443434 12 17 C11.01 17 10.02 17 9 17 C5.40006725 13.31435457 3.80717319 11.11209687 3 6 C2.03126968 4.64377755 1.03565785 3.30582947 0 2 C0 1.34 0 0.68 0 0 Z " fill="#233235" transform="translate(576,711)"/>
<path d="M0 0 C0.66 0.33 1.32 0.66 2 1 C2.37890625 2.92578125 2.37890625 2.92578125 2.5625 5.3125 C2.75625037 7.70472397 2.94082534 9.80901113 3.65234375 12.10546875 C4 14 4 14 2 17 C-0.67900576 11.64198848 -1.40623948 7.99203232 -1 2 C-0.67 1.34 -0.34 0.68 0 0 Z " fill="#2E4246" transform="translate(792,716)"/>
<path d="M0 0 C3 1 3 1 4.3515625 3.65234375 C4.77179687 4.73644531 5.19203125 5.82054687 5.625 6.9375 C6.05039062 8.01902344 6.47578125 9.10054687 6.9140625 10.21484375 C7.27242187 11.13394531 7.63078125 12.05304687 8 13 C8.33 13.66 8.66 14.32 9 15 C8.67 15.66 8.34 16.32 8 17 C6 17 6 17 4.5 15.5625 C2.35681427 11.90122438 1.79941616 8.12789436 1 4 C0.67528253 2.66454223 0.34470462 1.33043888 0 0 Z " fill="#2D4044" transform="translate(605,707)"/>
<path d="M0 0 C0.66 0.33 1.32 0.66 2 1 C2 3.83967231 1.59732819 6.23735711 1 9 C-0.32 8.67 -1.64 8.34 -3 8 C-3 10.97 -3 13.94 -3 17 C-3.33 17 -3.66 17 -4 17 C-4.63019694 6.02407002 -4.63019694 6.02407002 -2 1.75 C-1.01 0.88375 -1.01 0.88375 0 0 Z M-1 5 C0 7 0 7 0 7 Z " fill="#F35103" transform="translate(349,371)"/>
<path d="M0 0 C2.02215197 1.91572291 3.65589652 3.84576131 5.375 6.0625 C7.93383064 8.92595333 9.37933874 9.96552536 13 11 C13 11.33 13 11.66 13 12 C10.66404762 11.68554487 8.33094534 11.3496418 6 11 C5.236875 10.938125 4.47375 10.87625 3.6875 10.8125 C2 10 2 10 0.75 7.1875 C0 4 0 4 0 0 Z " fill="#32464A" transform="translate(495,725)"/>
<path d="M0 0 C0 3.96 0 7.92 0 12 C-1.98 12 -3.96 12 -6 12 C-5.34 11.67 -4.68 11.34 -4 11 C-4 7.7 -4 4.4 -4 1 C-1 0 -1 0 0 0 Z " fill="#4B595C" transform="translate(170,727)"/>
<path d="M0 0 C0.99 0.33 1.98 0.66 3 1 C3 4 3 4 1.0625 6.0625 C0.381875 6.701875 -0.29875 7.34125 -1 8 C-1.33 8.66 -1.66 9.32 -2 10 C-2.99 9.67 -3.98 9.34 -5 9 C-4.5206753 4.68607774 -3.2542015 2.83430453 0 0 Z " fill="#182426" transform="translate(797,707)"/>
<path d="M0 0 C2 2 2 2 2.4375 4.8125 C1.86588806 8.97710129 0.13624593 10.33419096 -3 13 C-3.66 12.34 -4.32 11.68 -5 11 C-5 10.34 -5 9.68 -5 9 C-4.01 8.67 -3.02 8.34 -2 8 C-1.19787372 6.12612784 -1.19787372 6.12612784 -0.8125 3.9375 C-0.65394531 3.20402344 -0.49539062 2.47054687 -0.33203125 1.71484375 C-0.22246094 1.14894531 -0.11289063 0.58304688 0 0 Z " fill="#2F4347" transform="translate(184,711)"/>
<path d="M0 0 C0.66 0 1.32 0 2 0 C3.31223496 3.93670488 2.24296256 6.12488144 1 10 C-1.64752004 7.42215154 -3.94432065 5.08351902 -6 2 C-4.35 2 -2.7 2 -1 2 C-0.67 1.34 -0.34 0.68 0 0 Z " fill="#283D43" transform="translate(828,611)"/>
<path d="M0 0 C1.32 0.66 2.64 1.32 4 2 C1.47519307 4.52480693 -0.13823034 4.55738633 -3.625 5.125 C-4.62789062 5.29257812 -5.63078125 5.46015625 -6.6640625 5.6328125 C-7.43492187 5.75398437 -8.20578125 5.87515625 -9 6 C-9.99 4.68 -10.98 3.36 -12 2 C-11.01 1.67 -10.02 1.34 -9 1 C-8.34 1.33 -7.68 1.66 -7 2 C-5.00039988 2.039992 -2.99952758 2.04346799 -1 2 C-0.67 1.34 -0.34 0.68 0 0 Z " fill="#304146" transform="translate(547,733)"/>
<path d="M0 0 C1.32 0.66 2.64 1.32 4 2 C3.67 3.65 3.34 5.3 3 7 C1.35 6.67 -0.3 6.34 -2 6 C-2.33 5.01 -2.66 4.02 -3 3 C-2.01 2.01 -1.02 1.02 0 0 Z " fill="#222B2D" transform="translate(293,732)"/>
<path d="M0 0 C1.4189919 4.25697569 1.26861143 7.71843643 0 12 C-1.65 11.67 -3.3 11.34 -5 11 C-3.14285714 2.28571429 -3.14285714 2.28571429 0 0 Z " fill="#293D42" transform="translate(745,639)"/>
<path d="M0 0 C1.32 0.66 2.64 1.32 4 2 C3.67 3.65 3.34 5.3 3 7 C1.35 6.67 -0.3 6.34 -2 6 C-1.125 1.125 -1.125 1.125 0 0 Z " fill="#192224" transform="translate(468,732)"/>
<path d="M0 0 C3 2 3 2 3.6875 4.0625 C4.11162815 8.04930461 4.07852899 11.9950216 4 16 C1.62526776 13.62526776 1.4828067 12.37628347 0.875 9.125 C0.70742188 8.26132812 0.53984375 7.39765625 0.3671875 6.5078125 C0 4 0 4 0 0 Z " fill="#2A3C40" transform="translate(554,710)"/>
<path d="M0 0 C0 1.65 0 3.3 0 5 C-0.66 5 -1.32 5 -2 5 C-2 4.01 -2 3.02 -2 2 C-7.61 2 -13.22 2 -19 2 C-19 1.67 -19 1.34 -19 1 C-12.63849395 0.34513908 -6.39628979 -0.12068471 0 0 Z " fill="#212C30" transform="translate(661,706)"/>
<path d="M0 0 C0.66 0.33 1.32 0.66 2 1 C0.3603125 1.86625 0.3603125 1.86625 -1.3125 2.75 C-3.69674001 4.09471136 -4.91798801 4.8884637 -6.5625 7.125 C-8.59201449 9.77219281 -10.85173951 10.16046387 -14 11 C-10.23625567 5.77932239 -6.04677535 2.38782288 0 0 Z " fill="#F54606" transform="translate(660,438)"/>
<path d="M0 0 C2.72574271 0.37330824 3.80822085 0.79194601 5.703125 2.84765625 C6.21359375 3.57855469 6.7240625 4.30945313 7.25 5.0625 C8.03117188 6.16271484 8.03117188 6.16271484 8.828125 7.28515625 C9.21484375 7.85105469 9.6015625 8.41695312 10 9 C9.34 9.66 8.68 10.32 8 11 C4 6.25 4 6.25 4 4 C3.34 4 2.68 4 2 4 C1.34 2.68 0.68 1.36 0 0 Z " fill="#2E4448" transform="translate(761,716)"/>
<path d="M0 0 C5.61 0 11.22 0 17 0 C17 0.33 17 0.66 17 1 C16.00097656 1.06058594 15.00195312 1.12117187 13.97265625 1.18359375 C12.68230469 1.26738281 11.39195312 1.35117187 10.0625 1.4375 C8.77472656 1.51871094 7.48695313 1.59992187 6.16015625 1.68359375 C3.13976043 1.64919188 3.13976043 1.64919188 2 3 C1.76807135 4.51469448 1.58784762 6.03754562 1.4375 7.5625 C1.35371094 8.38878906 1.26992188 9.21507812 1.18359375 10.06640625 C1.12300781 10.70449219 1.06242188 11.34257813 1 12 C0.67 12 0.34 12 0 12 C0 8.04 0 4.08 0 0 Z " fill="#33484D" transform="translate(642,708)"/>
<path d="M0 0 C2.64 0 5.28 0 8 0 C8 0.33 8 0.66 8 1 C6.02 1 4.04 1 2 1 C2 1.66 2 2.32 2 3 C4.64 3 7.28 3 10 3 C9.67 3.66 9.34 4.32 9 5 C6.03 5 3.06 5 0 5 C0 3.35 0 1.7 0 0 Z " fill="#151E21" transform="translate(314,706)"/>
<path d="M0 0 C0.99 0.495 0.99 0.495 2 1 C3.55033393 5.80603519 3.0872355 11.00819059 3 16 C2.67 16 2.34 16 2 16 C2 14.35 2 12.7 2 11 C1.34 11 0.68 11 0 11 C0 7.37 0 3.74 0 0 Z " fill="#F75409" transform="translate(456,462)"/>
<path d="M0 0 C0.66 0 1.32 0 2 0 C1.91253716 1.43861294 1.80434652 2.87597508 1.6875 4.3125 C1.62949219 5.11300781 1.57148437 5.91351562 1.51171875 6.73828125 C0.91793306 9.36272334 0.04219706 10.30820672 -2 12 C-2 11.34 -2 10.68 -2 10 C-2.66 9.67 -3.32 9.34 -4 9 C-2.68 6.03 -1.36 3.06 0 0 Z " fill="#2A3C41" transform="translate(629,708)"/>
<path d="M0 0 C3.465 1.98 3.465 1.98 7 4 C6.01 4.495 6.01 4.495 5 5 C4.278125 4.71125 3.55625 4.4225 2.8125 4.125 C-0.03150329 3.69127202 -0.03150329 3.69127202 -1.8828125 5.48828125 C-3.65360797 7.27699975 -5.35318452 9.09690776 -7 11 C-7.66 10.67 -8.32 10.34 -9 10 C-8.27683594 9.29423828 -8.27683594 9.29423828 -7.5390625 8.57421875 C-6.90742188 7.95160156 -6.27578125 7.32898438 -5.625 6.6875 C-4.68527344 5.76517578 -4.68527344 5.76517578 -3.7265625 4.82421875 C-1.81913393 2.91187472 -1.81913393 2.91187472 0 0 Z " fill="#F74710" transform="translate(186,637)"/>
<path d="M0 0 C0.8125 1.625 0.8125 1.625 1 4 C-2.87862384 9.65170902 -2.87862384 9.65170902 -6.17578125 10.67578125 C-6.77777344 10.78277344 -7.37976563 10.88976562 -8 11 C-7.04454634 9.53977837 -6.08553322 8.08188532 -5.125 6.625 C-4.59132813 5.81289063 -4.05765625 5.00078125 -3.5078125 4.1640625 C-2 2 -2 2 0 0 Z " fill="#F55004" transform="translate(407,611)"/>
<path d="M0 0 C0.66 0.33 1.32 0.66 2 1 C2 4 2 4 -0.5 6.6875 C-1.325 7.450625 -2.15 8.21375 -3 9 C-3.75 6.75 -3.75 6.75 -4 4 C-2.0625 1.6875 -2.0625 1.6875 0 0 Z " fill="#F35907" transform="translate(207,305)"/>
<path d="M0 0 C2.97 0.495 2.97 0.495 6 1 C6 1.66 6 2.32 6 3 C5.35546875 3.23460937 4.7109375 3.46921875 4.046875 3.7109375 C1.7922092 4.81161073 1.7922092 4.81161073 1.390625 7.1640625 C1.34421875 7.97617187 1.2978125 8.78828125 1.25 9.625 C1.19328125 10.44226563 1.1365625 11.25953125 1.078125 12.1015625 C1.05234375 12.72804688 1.0265625 13.35453125 1 14 C0.67 14 0.34 14 0 14 C0 9.38 0 4.76 0 0 Z " fill="#2E4247" transform="translate(349,722)"/>
<path d="M0 0 C0.66 0.33 1.32 0.66 2 1 C1 4 1 4 -1.9375 5.6875 C-5 7 -5 7 -7 7 C-5.55609075 3.19333016 -3.65047197 1.73397418 0 0 Z " fill="#F75A08" transform="translate(442,235)"/>
<path d="M0 0 C0.66 0.66 1.32 1.32 2 2 C1.875 5 1.875 5 1 8 C-1.0625 9.375 -1.0625 9.375 -3 10 C-2.21302675 6.58978257 -1.12880057 3.31114834 0 0 Z " fill="#304449" transform="translate(244,726)"/>
<path d="M0 0 C2.1640625 0.77734375 2.1640625 0.77734375 4.625 1.9375 C5.44226563 2.31777344 6.25953125 2.69804688 7.1015625 3.08984375 C7.72804687 3.39019531 8.35453125 3.69054687 9 4 C8.67 4.66 8.34 5.32 8 6 C3.2482602 5.56802365 1.07999946 4.67230705 -2 1 C-1.34 0.67 -0.68 0.34 0 0 Z " fill="#31464A" transform="translate(229,717)"/>
<path d="M0 0 C-1.36125 0.61875 -1.36125 0.61875 -2.75 1.25 C-5.79665618 2.89050718 -7.71126806 4.44718361 -10 7 C-10.66 6.67 -11.32 6.34 -12 6 C-12 5.34 -12 4.68 -12 4 C-10.56988027 3.13353333 -9.13059381 2.28218171 -7.6875 1.4375 C-6.48673828 0.72400391 -6.48673828 0.72400391 -5.26171875 -0.00390625 C-3 -1 -3 -1 0 0 Z " fill="#F74D09" transform="translate(145,571)"/>
<path d="M0 0 C0.75 1.6875 0.75 1.6875 1 4 C-1.13381449 7.2769294 -2.25018012 8.75006004 -6 10 C-4.6302836 6.00499382 -2.74277578 3.19990508 0 0 Z " fill="#F54E03" transform="translate(400,273)"/>
<path d="M0 0 C0.33 0 0.66 0 1 0 C1.66 4.62 2.32 9.24 3 14 C2.01 14 1.02 14 0 14 C0 9.38 0 4.76 0 0 Z " fill="#2E4347" transform="translate(828,722)"/>
<path d="M0 0 C1.8125 0.0625 1.8125 0.0625 4 1 C5.625 4.3125 5.625 4.3125 7 8 C7.65288627 9.34013497 8.31225595 10.67741528 9 12 C5.74483572 8.83525695 2.67991207 5.67247209 0 2 C0 1.34 0 0.68 0 0 Z " fill="#131B1F" transform="translate(677,716)"/>
<path d="M0 0 C4 1 4 1 5.25 3.0625 C5.4975 3.701875 5.745 4.34125 6 5 C5.34 5 4.68 5 4 5 C3.67 4.34 3.34 3.68 3 3 C2.25042843 6.47147842 2.25042843 6.47147842 2 10 C1.34 10 0.68 10 0 10 C0 6.7 0 3.4 0 0 Z " fill="#2F4549" transform="translate(755,708)"/>
<path d="M0 0 C0.33 0.66 0.66 1.32 1 2 C1.66 2 2.32 2 3 2 C3.12375 3.03125 3.2475 4.0625 3.375 5.125 C3.93889814 8.62116846 4.78682059 11.68397627 6 15 C2.66475716 12.30004151 1.43648692 8.96744005 0 5 C-0.1875 2.0625 -0.1875 2.0625 0 0 Z " fill="#0E1518" transform="translate(690,639)"/>
<path d="M0 0 C0.99 0.66 1.98 1.32 3 2 C2.071875 2.763125 1.14375 3.52625 0.1875 4.3125 C-1.98276101 6.11848552 -4.05568065 7.9476629 -6 10 C-4.6302836 6.00499382 -2.74277578 3.19990508 0 0 Z " fill="#F5540E" transform="translate(220,604)"/>
<path d="M0 0 C1.2375 0.495 1.2375 0.495 2.5 1 C6.5873983 2.16782809 9.76923344 2.1458885 14 2 C14 2.66 14 3.32 14 4 C12.22950311 4.05410687 10.45853151 4.09284119 8.6875 4.125 C7.20830078 4.15980469 7.20830078 4.15980469 5.69921875 4.1953125 C3 4 3 4 0 2 C0 1.34 0 0.68 0 0 Z " fill="#33484C" transform="translate(226,733)"/>
<path d="M0 0 C0.66 0 1.32 0 2 0 C1 3 1 3 -1 4 C-3.04055005 4.07065617 -5.08334257 4.08421976 -7.125 4.0625 C-8.22070312 4.05347656 -9.31640625 4.04445313 -10.4453125 4.03515625 C-11.70988281 4.01775391 -11.70988281 4.01775391 -13 4 C-13 3.67 -13 3.34 -13 3 C-12.14535156 2.86722656 -11.29070313 2.73445312 -10.41015625 2.59765625 C-9.30542969 2.42105469 -8.20070313 2.24445312 -7.0625 2.0625 C-5.96035156 1.88847656 -4.85820313 1.71445312 -3.72265625 1.53515625 C-1.09573071 1.28154864 -1.09573071 1.28154864 0 0 Z " fill="#33484D" transform="translate(814,733)"/>
<path d="M0 0 C2.64752004 2.57784846 4.94432065 4.91648098 7 8 C5.25 7.875 5.25 7.875 3 7 C0.75 3.9375 0.75 3.9375 -1 1 C-0.67 0.67 -0.34 0.34 0 0 Z " fill="#33464B" transform="translate(361,729)"/>
<path d="M0 0 C2.64 0.33 5.28 0.66 8 1 C8.33 1.99 8.66 2.98 9 4 C6.33333333 4 3.66666667 4 1 4 C0.67 2.68 0.34 1.36 0 0 Z " fill="#2C4046" transform="translate(168,722)"/>
<path d="M0 0 C3.96 0 7.92 0 12 0 C11.67 1.32 11.34 2.64 11 4 C10.484375 3.690625 9.96875 3.38125 9.4375 3.0625 C6.33334577 1.70940713 3.34884993 1.38640576 0 1 C0 0.67 0 0.34 0 0 Z " fill="#2C4349" transform="translate(316,708)"/>
<path d="M0 0 C0.66 0 1.32 0 2 0 C2.433125 0.639375 2.86625 1.27875 3.3125 1.9375 C5.40849852 4.49927596 6.78299472 4.65221564 10 5 C10 5.99 10 6.98 10 8 C5.05661643 6.76415411 2.83177018 5.24765527 0 1 C0 0.67 0 0.34 0 0 Z " fill="#18262A" transform="translate(509,652)"/>
<path d="M0 0 C0.78375 0.04125 1.5675 0.0825 2.375 0.125 C1.055 0.455 -0.265 0.785 -1.625 1.125 C-1.295 2.775 -0.965 4.425 -0.625 6.125 C-1.945 5.795 -3.265 5.465 -4.625 5.125 C-4.625 1.22254579 -3.95783286 0.18846823 0 0 Z " fill="#293E43" transform="translate(722.625,653.875)"/>
<path d="M0 0 C0.99 0.33 1.98 0.66 3 1 C3.73046875 2.84765625 3.73046875 2.84765625 4.1875 5.0625 C4.34605469 5.79597656 4.50460937 6.52945313 4.66796875 7.28515625 C4.83232422 8.13400391 4.83232422 8.13400391 5 9 C3.68 9 2.36 9 1 9 C1.020625 8.071875 1.04125 7.14375 1.0625 6.1875 C1.15769604 2.97713989 1.15769604 2.97713989 0 0 Z " fill="#293C41" transform="translate(570,707)"/>
<path d="M0 0 C0.66 0.33 1.32 0.66 2 1 C0.625 3 0.625 3 -1 5 C-1.66 5 -2.32 5 -3 5 C-3.33 5.99 -3.66 6.98 -4 8 C-4 4 -4 4 -2 1.75 C-1.01 0.88375 -1.01 0.88375 0 0 Z " fill="#F55009" transform="translate(250,359)"/>
<path d="M0 0 C0.66 1.32 1.32 2.64 2 4 C-1.4352048 6.29013653 -2.985331 6.17842973 -7 6 C-4.38058783 4.25372522 -2.96175123 3.61277612 0 3 C0 2.01 0 1.02 0 0 Z " fill="#35474C" transform="translate(517,731)"/>
<path d="M0 0 C0.99 0.33 1.98 0.66 3 1 C3 1.99 3 2.98 3 4 C-0.33333333 7 -0.33333333 7 -3 7 C-2.690625 6.401875 -2.38125 5.80375 -2.0625 5.1875 C-0.89790296 2.91043228 -0.89790296 2.91043228 0 0 Z " fill="#35474B" transform="translate(797,707)"/>
<path d="M0 0 C1.485 0.99 1.485 0.99 3 2 C4.65549531 2.38499891 6.3222433 2.72793135 8 3 C8 3.66 8 4.32 8 5 C6.02 5 4.04 5 2 5 C1.34 3.35 0.68 1.7 0 0 Z " fill="#1F2428" transform="translate(362,734)"/>
<path d="M0 0 C4.875 4.75 4.875 4.75 6 7 C4.1875 6.8125 4.1875 6.8125 2 6 C0.25 3.4375 0.25 3.4375 -1 1 C-0.67 0.67 -0.34 0.34 0 0 Z " fill="#32464C" transform="translate(180,730)"/>
<path d="M0 0 C4.875 3.625 4.875 3.625 6 7 C5.01 7 4.02 7 3 7 C0 2.77777778 0 2.77777778 0 0 Z " fill="#32464B" transform="translate(675,710)"/>
<path d="M0 0 C0.99 0.33 1.98 0.66 3 1 C4.1875 4.5625 4.1875 4.5625 5 8 C4.01 8.495 4.01 8.495 3 9 C2.01 6.03 1.02 3.06 0 0 Z " fill="#35494E" transform="translate(605,707)"/>
<path d="M0 0 C2.1875 0.3125 2.1875 0.3125 4 1 C1.03 3.475 1.03 3.475 -2 6 C-2.33 5.01 -2.66 4.02 -3 3 C-1.75 1.4375 -1.75 1.4375 0 0 Z " fill="#34474B" transform="translate(229,708)"/>
<path d="M0 0 C1.32 0 2.64 0 4 0 C4 0.66 4 1.32 4 2 C0.04 3.98 0.04 3.98 -4 6 C-2 2 -2 2 0 0 Z " fill="#F75C0E" transform="translate(129,578)"/>
<path d="M0 0 C0.33 0 0.66 0 1 0 C1.33 2.31 1.66 4.62 2 7 C1.01 7.66 0.02 8.32 -1 9 C-1.625 6.1875 -1.625 6.1875 -2 3 C-1.34 2.01 -0.68 1.02 0 0 Z " fill="#F5711A" transform="translate(478,239)"/>
</svg>
